<svg width="561" height="561" viewBox="0 0 561 561" fill="none" xmlns="http://www.w3.org/2000/svg">
<path d="M12.3826 0.0221693C5.34135 0.684381 -0.0281054 6.61087 0.00116523 13.6806V75.1464C-0.0464764 78.8005 1.36847 82.3259 3.93636 84.9271C6.50425 87.5331 10.0059 89.0004 13.6647 89.0004C17.3188 89.0004 20.8251 87.5331 23.393 84.9271C25.9562 82.3259 27.3758 78.8005 27.3235 75.1464V27.339H75.1309C78.785 27.3914 82.3104 25.9717 84.9164 23.4085C87.5175 20.8407 88.9848 17.3343 88.9848 13.6802C88.9848 10.0214 87.5175 6.51976 84.9164 3.95187C82.3104 1.38398 78.785 -0.0308823 75.1309 0.0214389H13.6651C13.2363 -0.00238129 12.8075 -0.00238129 12.3835 0.0214389L12.3826 0.0221693ZM129.132 0.0221693H129.127C121.586 0.431885 115.802 6.88247 116.217 14.4282C116.631 21.9698 123.077 27.7488 130.623 27.339H198.068C201.722 27.3914 205.248 25.9717 207.849 23.4085C210.455 20.8407 211.922 17.3343 211.922 13.6802C211.922 10.0214 210.455 6.51976 207.849 3.95187C205.248 1.38398 201.722 -0.0308823 198.068 0.0214389H130.623C130.127 -0.0071463 129.627 -0.0071463 129.127 0.0214389L129.132 0.0221693ZM251.422 0.0221693C243.876 0.37471 238.049 6.77771 238.402 14.3196C238.754 21.866 245.157 27.6927 252.704 27.3402H300.512V75.1477C300.459 78.8017 301.874 82.3271 304.442 84.9283C307.01 87.5343 310.512 89.0016 314.171 89.0016C317.829 89.0016 321.331 87.5343 323.899 84.9283C326.467 82.3271 327.882 78.8017 327.829 75.1477V13.6818C327.829 6.13546 321.712 0.0233883 314.171 0.0233883H252.705C252.276 -0.000431916 251.847 -0.000431916 251.423 0.0233883L251.422 0.0221693ZM13.8791 116.123H13.8743C10.2535 116.18 6.79962 117.671 4.27942 120.272C1.75922 122.878 0.372893 126.37 0.430092 129.996V197.651C0.377687 201.305 1.79264 204.831 4.36053 207.437C6.92842 210.038 10.4348 211.505 14.0889 211.505C17.7477 211.505 21.2493 210.038 23.8172 207.437C26.3851 204.831 27.8 201.305 27.7476 197.651V129.996C27.8096 126.299 26.3661 122.735 23.7506 120.12C21.1351 117.509 17.5716 116.066 13.8746 116.123H13.8791ZM314.391 116.123C310.765 116.18 307.316 117.671 304.791 120.272C302.271 122.878 300.885 126.37 300.942 129.996V197.651C300.894 201.305 302.309 204.831 304.877 207.437C307.445 210.038 310.947 211.505 314.605 211.505C318.26 211.505 321.766 210.038 324.334 207.437C326.897 204.831 328.317 201.305 328.264 197.651V129.996C328.321 126.299 326.878 122.735 324.262 120.12C321.652 117.509 318.088 116.066 314.391 116.123H314.391ZM244.596 232.224C237.56 232.891 232.186 238.812 232.22 245.882V546.382C232.22 553.923 238.337 560.035 245.878 560.04H546.39C553.936 560.035 560.048 553.923 560.053 546.382V245.882C560.048 238.34 553.936 232.224 546.39 232.224H245.878C245.449 232.205 245.025 232.205 244.597 232.224H244.596ZM12.1753 238.841C5.13877 239.613 -0.145195 245.635 0.00774378 252.714V314.18C0.0125076 321.721 6.12482 327.838 13.671 327.838H75.1369C78.7957 327.895 82.3211 326.481 84.9271 323.913C87.5378 321.345 89.0052 317.838 89.0052 314.18C89.0052 310.521 87.5379 307.014 84.9271 304.446C82.3211 301.879 78.7957 300.464 75.1369 300.521H27.3294V252.713C27.4152 248.778 25.7954 245 22.8941 242.342C19.9928 239.688 16.0862 238.411 12.1748 238.84L12.1753 238.841ZM259.537 259.546H532.729V532.727H259.537V259.546ZM129.124 300.523C125.489 300.704 122.078 302.324 119.638 305.03C117.204 307.731 115.942 311.299 116.142 314.934C116.342 318.564 117.98 321.971 120.696 324.396C123.416 326.816 126.985 328.059 130.62 327.84H198.065C201.724 327.897 205.249 326.482 207.855 323.914C210.461 321.346 211.929 317.84 211.929 314.181C211.929 310.522 210.461 307.016 207.855 304.448C205.249 301.88 201.724 300.465 198.065 300.522H130.62C130.124 300.494 129.624 300.494 129.124 300.522V300.523Z" fill="#65CAFA"/>
</svg>
