<svg width="329" height="561" viewBox="0 0 329 561" fill="none" xmlns="http://www.w3.org/2000/svg">
<path d="M326.627 248.011L87.3965 556.711C85.7285 558.824 83.1777 560.051 80.4824 560.035C79.0801 560.07 77.6933 559.738 76.459 559.074C72.6973 557.141 70.8574 552.793 72.084 548.746L136.572 335.596H8.64204C5.34904 335.584 2.33734 333.725 0.852944 330.784C-0.498656 327.952 -0.229066 324.616 1.55605 322.034L233.606 3.62366C235.969 0.35806 240.254 -0.87244 243.989 0.64316C247.723 2.15486 249.938 6.02596 249.356 10.0143L218.645 233.924H319.705C323.053 233.916 326.108 235.819 327.58 238.827C329.033 241.823 328.662 245.381 326.619 248.014L326.627 248.011Z" fill="#65CAFA"/>
</svg>
