<svg width="485" height="561" viewBox="0 0 485 561" fill="none" xmlns="http://www.w3.org/2000/svg">
<path d="M360.51 0C292.316 0 236.655 55.5918 236.655 123.749C236.655 156.564 249.712 188.05 272.94 211.255C296.162 234.46 327.672 247.494 360.51 247.494C393.347 247.494 424.856 234.46 448.085 211.255C471.308 188.05 484.36 156.564 484.36 123.749C484.36 90.9293 471.303 59.4391 448.085 36.2388C424.858 13.0338 393.352 0 360.51 0V0ZM213.312 26.9323C116.026 34.6028 39.6775 115.679 39.6775 214.638V366.178L1.59153 446.256H1.59612C-0.830504 451.362 -0.472006 457.35 2.54747 462.13C5.56696 466.905 10.8247 469.8 16.4731 469.8H132.428C135.415 520.061 177.44 560.04 228.514 560.04C279.588 560.04 321.584 520.061 324.59 469.8H440.553C446.206 469.8 451.459 466.9 454.479 462.125C457.494 457.35 457.852 451.357 455.426 446.256L417.344 366.178V285.258C417.344 280.892 415.612 276.701 412.523 273.612C409.43 270.519 405.243 268.787 400.873 268.787C396.507 268.787 392.315 270.519 389.227 273.612C386.134 276.701 384.401 280.892 384.401 285.258V369.897C384.41 372.342 384.962 374.759 386.019 376.97L414.509 436.863H324.797V436.858H291.854V436.863H165.222V436.858H132.279V436.863H42.5767L71.0574 376.97C72.1144 374.759 72.666 372.342 72.6751 369.897V214.64C72.6751 132.549 135.372 66.1361 215.967 59.7828C225.034 59.0658 231.809 51.1379 231.096 42.0699C230.751 37.713 228.692 33.6732 225.369 30.8329C222.047 27.9972 217.731 26.5955 213.375 26.9402L213.312 26.9323ZM360.51 32.9069C384.634 32.9069 407.75 42.4755 424.802 59.5122C441.853 76.545 451.422 99.63 451.422 123.716C451.422 147.799 441.853 170.879 424.802 187.92C407.752 204.953 384.634 214.521 360.51 214.521C336.391 214.521 313.277 204.952 296.227 187.92C279.176 170.884 269.608 147.798 269.608 123.716C269.608 73.3778 310.107 32.9058 360.515 32.9058L360.51 32.9069ZM165.45 469.758H291.576C288.713 502.183 261.951 527.06 228.515 527.06C195.085 527.06 168.314 502.182 165.45 469.758Z" fill="#65CAFA"/>
</svg>
