<svg width="1012" height="506" viewBox="0 0 1012 506" fill="none" xmlns="http://www.w3.org/2000/svg">
<g clip-path="url(#clip0_3_155)">
<rect width="25.0396" height="48.5275" rx="2" transform="matrix(0.944171 -0.329455 0.338246 0.941058 860.853 216.09)" fill="#D9D9D9"/>
<rect width="22.4592" height="43.0815" rx="2" transform="matrix(0.944171 -0.329455 0.338246 0.941058 863.27 218.682)" fill="white"/>
<path d="M882.215 239.827C881.788 239.986 881.399 239.977 881.048 239.8C880.72 239.615 880.439 239.284 880.205 238.808L874.271 226.343C873.886 225.539 873.812 224.811 874.051 224.159C874.281 223.485 874.812 222.993 875.644 222.683C876.454 222.382 877.16 222.413 877.762 222.778C878.378 223.112 878.812 223.706 879.062 224.561L882.972 237.778C883.138 238.28 883.149 238.711 883.005 239.072C882.883 239.425 882.62 239.676 882.215 239.827ZM884.895 246.819C884.13 247.103 883.421 247.098 882.769 246.803C882.138 246.5 881.682 245.979 881.398 245.239C881.123 244.522 881.125 243.856 881.403 243.24C881.695 242.594 882.223 242.128 882.988 241.844C883.775 241.551 884.473 241.56 885.081 241.872C885.702 242.153 886.15 242.651 886.425 243.369C886.709 244.108 886.716 244.797 886.446 245.435C886.199 246.065 885.682 246.526 884.895 246.819Z" fill="#E74B3B" fill-opacity="0.8"/>
<path fill-rule="evenodd" clip-rule="evenodd" d="M994.78 191.213C998.92 186.424 1001.72 180.556 1001.25 173.98C999.905 155.034 973.137 159.202 967.93 168.764C962.723 178.327 963.342 202.583 970.072 204.292C972.755 204.973 978.472 203.304 984.291 199.848L980.639 225.306H1002.2L994.78 191.213Z" fill="#B28B67"/>
<path fill-rule="evenodd" clip-rule="evenodd" d="M1010.66 167.673C1011.35 166.993 1011.73 166.023 1012.06 165.101C1012.4 164.143 1012.73 163.176 1012.96 162.179C1013.41 160.188 1013.42 157.898 1011.98 156.352C1010.82 155.112 1009.08 154.556 1007.48 154.435C1006.42 154.354 1005.32 154.502 1004.3 154.833C1003.28 155.161 1002.41 155.816 1001.43 156.223C1001.39 154.077 1001.02 151.831 999.91 149.999C998.847 148.236 997.152 147.247 995.221 146.985C993.24 146.717 991.283 147.173 989.509 148.119C989.065 148.355 988.625 148.603 988.204 148.884C987.851 149.119 987.485 149.402 987.071 149.498C986.61 149.604 986.381 149.342 986.082 149.01C985.73 148.622 985.334 148.279 984.915 147.976C983.063 146.634 980.632 146.083 978.486 146.887C977.497 147.257 976.536 147.887 975.865 148.754C975.267 149.527 974.84 150.753 974.015 151.291C973.664 151.52 973.417 151.217 973.098 150.993C972.619 150.657 972.162 150.286 971.677 149.958C970.996 149.499 970.259 149.155 969.47 148.975C968.314 148.711 966.716 148.773 966.386 150.265C966.262 150.825 966.357 151.424 966.397 151.989C966.452 152.764 966.509 153.539 966.578 154.313C966.63 154.901 966.695 155.468 966.808 156.045C966.868 156.353 967.056 156.926 966.922 157.234C966.755 157.62 965.982 157.401 965.652 157.414C965.001 157.441 964.346 157.553 963.744 157.827C963.277 158.04 962.786 158.353 962.589 158.88C962.468 159.204 962.5 159.537 962.557 159.87C962.626 160.27 962.547 160.482 962.496 160.886C961.621 160.461 958.588 159.518 958.206 161.063C958.079 161.578 958.369 162.159 958.589 162.593C958.977 163.354 959.484 164.05 960.003 164.713C961.085 166.097 962.377 167.291 963.768 168.312C962.139 169.025 961.714 171.13 963.124 172.384C963.747 172.937 964.584 173.061 965.369 173.025C965.657 173.012 966.071 172.903 966.297 172.953C966.419 172.979 966.549 173.081 966.718 173.092C967.827 173.167 969.078 172.904 970.161 172.662C972.092 172.23 973.92 171.328 975.413 169.956C975.796 169.604 976.112 169.401 976.627 169.406C977.079 169.411 977.522 169.533 977.973 169.544C979.167 169.574 980.244 168.999 981.352 168.616C981.42 170.092 981.847 171.717 982.46 173.045C982.959 174.127 984.002 174.285 985.028 174.38C988.306 174.683 991.596 174.344 994.878 174.349C991.701 175.056 988.417 175.348 985.268 176.181C983.844 176.557 984.932 177.503 985.54 178.158C986.543 179.237 987.288 180.574 987.805 181.983C989.359 179.986 992.107 178.671 994.541 179.284C997.23 179.962 999.124 183.545 997.404 186.122C996.406 187.617 994.603 188.195 993.102 188.837C994.273 190.036 994.556 191.807 995.26 193.299C995.608 194.034 996.095 194.866 996.872 195.122C997.16 195.217 997.497 195.225 997.724 195.456C998.005 195.742 998.072 196.062 998.43 196.307C999.862 197.288 1002.1 197.212 1003.37 195.933C1004.51 194.775 1004.22 192.944 1003.26 191.77C1004.78 191.144 1007.56 190.338 1006.96 187.996C1010.26 187.78 1018.29 182.498 1013.85 178.638C1016.29 177.282 1018.52 173.968 1016.96 171.047C1015.75 168.798 1012.95 167.793 1010.66 167.673Z" fill="#191847"/>
<path fill-rule="evenodd" clip-rule="evenodd" d="M1041.18 335.972H971.764L962.668 445.752H1066L1041.18 335.972Z" fill="#C5CFD6"/>
<path fill-rule="evenodd" clip-rule="evenodd" d="M1041.18 335.972H1019.83L1007.05 445.752H1066L1041.18 335.972Z" fill="black" fill-opacity="0.1"/>
<path fill-rule="evenodd" clip-rule="evenodd" d="M892.624 317.164C885.223 312.785 872.805 318.411 872.814 324.673C872.84 343.411 890.195 431.72 891.101 437.303C892.007 442.885 901.714 444.36 902.279 437.321C903.179 426.121 904.85 387.35 903.178 369.404C902.488 361.996 901.744 354.941 901.013 348.647C910.12 364.851 924.204 388.052 943.266 418.248L953.614 413.59C945.488 387.211 938.825 368.588 933.624 357.721C924.72 339.114 916.37 323.18 912.856 317.568C907.329 308.739 897.708 311.819 892.624 317.164Z" fill="#B28B67"/>
<path fill-rule="evenodd" clip-rule="evenodd" d="M952.874 398.94L917.357 316.041C908.848 302.555 884.992 318.785 887.894 326.606C894.481 344.364 927.984 401.852 929.947 407.143L952.874 398.94Z" fill="#1F28CF"/>
<path fill-rule="evenodd" clip-rule="evenodd" d="M954.846 408.362C957.059 410.157 958.498 411.622 959.164 412.759C959.974 414.142 960.923 416.292 962.009 419.211C960.382 420.137 945.752 428.459 918.12 444.178C914.803 441.111 914.286 438.731 916.569 437.037C918.853 435.343 920.738 433.914 922.223 432.751L937.372 412.186C937.664 411.79 938.225 411.703 938.627 411.99C938.634 411.995 938.641 412 938.647 412.005L941.795 414.393C944.683 414.145 946.838 413.616 948.26 412.807C949.415 412.15 950.742 410.782 952.239 408.704L952.239 408.704C952.813 407.907 953.935 407.719 954.745 408.285C954.779 408.31 954.813 408.335 954.846 408.362Z" fill="#E4E4E4"/>
<path fill-rule="evenodd" clip-rule="evenodd" d="M904.552 432.828C905.557 435.472 906.06 437.45 906.06 438.763C906.06 440.359 905.79 442.689 905.25 445.752C903.37 445.752 886.477 445.752 854.571 445.752C853.254 441.462 854.014 439.146 856.851 438.804C859.689 438.462 862.046 438.153 863.923 437.877L887.478 427.531C887.931 427.332 888.462 427.532 888.664 427.979C888.668 427.986 888.671 427.994 888.674 428.002L890.188 431.621C892.815 432.828 894.95 433.432 896.592 433.432C897.926 433.432 899.769 432.901 902.12 431.839L902.12 431.839C903.022 431.432 904.089 431.822 904.502 432.711C904.52 432.749 904.537 432.788 904.552 432.828Z" fill="#E4E4E4"/>
<path fill-rule="evenodd" clip-rule="evenodd" d="M870.325 331.043C870.325 354.563 881.661 409.427 881.668 414.606L906.06 414.625C902.49 365.67 901.224 340.929 902.262 340.402C903.819 339.611 966.104 346.529 984.784 346.529C1011.72 346.529 1022.86 329.792 1023.77 298.788H970.408C959.543 299.934 902.871 311.196 881.824 315.068C872.814 316.725 870.325 324.564 870.325 331.043Z" fill="#2B44FF"/>
<path fill-rule="evenodd" clip-rule="evenodd" d="M962.095 243.633L930.907 226.802C925.72 220.734 920.61 216.021 915.576 212.664C914.038 212.031 911.349 211.648 913.864 216.047C916.38 220.446 918.825 225.185 917.543 226.54C916.262 227.895 913.066 226.002 911.537 228.254C910.518 229.755 915.977 232.127 927.916 235.368L950.577 255.812L962.095 243.633ZM913.248 257.833L899.549 250.418C897.627 243.211 895.329 239.585 892.655 239.54C890.602 238.598 894.178 247.705 890.285 246.915C886.392 246.125 876.89 239.162 875.252 240.576C872.83 242.668 874.99 249.09 877.535 252.285C882.291 258.256 886.229 260.298 895.962 262.972C901.051 264.37 906.553 267.172 912.468 271.379L913.248 257.833Z" fill="#997659"/>
<path fill-rule="evenodd" clip-rule="evenodd" d="M977.284 239.883C966.36 239.77 951.793 237.496 936.249 227.775L930.145 241.188C940.866 251.672 955.942 260.285 969.123 259.92C979.511 259.633 984.82 247.253 977.284 239.883Z" fill="#1578EC"/>
<path fill-rule="evenodd" clip-rule="evenodd" d="M962.575 261.393C950.978 264.243 931.53 260.882 904.231 251.311C897.46 265.114 894.33 274.954 894.841 280.831C918.259 292.884 938.33 298.258 954.866 298.612C954.341 308.28 955.535 317.479 959.547 325.884C967.795 343.164 1016.09 327.161 1032.33 330.311C1042.5 297.771 1022.84 284.547 1022.82 263.726C1022.8 240.925 1004.22 205.829 1001.49 205.829H976.557C975.181 223.243 968.257 242.434 962.575 261.393Z" fill="#1578EC"/>
<path d="M676.878 257.217C675.706 258.389 675.706 260.288 676.878 261.46L695.97 280.551C697.141 281.723 699.041 281.723 700.212 280.551C701.384 279.38 701.384 277.48 700.212 276.309L683.242 259.338L700.212 242.368C701.384 241.196 701.384 239.297 700.212 238.125C699.041 236.953 697.141 236.953 695.97 238.125L676.878 257.217ZM815.775 256.338H678.999V262.338H815.775V256.338Z" fill="#1578EC"/>
<path d="M790.121 65.192C789.625 65.192 789.241 65.056 788.969 64.784C788.713 64.496 788.585 64.104 788.585 63.608V49.64C788.585 49.128 788.721 48.744 788.993 48.488C789.265 48.216 789.649 48.08 790.145 48.08H795.929C797.785 48.08 799.217 48.528 800.225 49.424C801.233 50.304 801.737 51.544 801.737 53.144C801.737 54.184 801.505 55.08 801.041 55.832C800.593 56.584 799.937 57.16 799.073 57.56C798.209 57.96 797.161 58.16 795.929 58.16L796.145 57.8H796.937C797.593 57.8 798.161 57.96 798.641 58.28C799.137 58.6 799.569 59.104 799.937 59.792L801.737 63.128C801.929 63.464 802.017 63.792 802.001 64.112C801.985 64.432 801.865 64.696 801.641 64.904C801.417 65.096 801.089 65.192 800.657 65.192C800.225 65.192 799.873 65.104 799.601 64.928C799.329 64.736 799.089 64.448 798.881 64.064L796.457 59.6C796.169 59.056 795.825 58.696 795.425 58.52C795.041 58.328 794.545 58.232 793.937 58.232H791.657V63.608C791.657 64.104 791.529 64.496 791.273 64.784C791.017 65.056 790.633 65.192 790.121 65.192ZM791.657 55.952H795.401C796.505 55.952 797.337 55.728 797.897 55.28C798.473 54.816 798.761 54.128 798.761 53.216C798.761 52.32 798.473 51.648 797.897 51.2C797.337 50.736 796.505 50.504 795.401 50.504H791.657V55.952ZM810.229 65.24C808.901 65.24 807.757 64.992 806.797 64.496C805.837 64 805.093 63.296 804.565 62.384C804.053 61.472 803.797 60.392 803.797 59.144C803.797 57.928 804.045 56.864 804.541 55.952C805.053 55.04 805.749 54.328 806.629 53.816C807.525 53.288 808.541 53.024 809.677 53.024C810.509 53.024 811.253 53.16 811.909 53.432C812.581 53.704 813.149 54.096 813.613 54.608C814.093 55.12 814.453 55.744 814.693 56.48C814.949 57.2 815.077 58.016 815.077 58.928C815.077 59.216 814.973 59.44 814.765 59.6C814.573 59.744 814.293 59.816 813.925 59.816H806.221V58.088H812.965L812.581 58.448C812.581 57.712 812.469 57.096 812.245 56.6C812.037 56.104 811.725 55.728 811.309 55.472C810.909 55.2 810.405 55.064 809.797 55.064C809.125 55.064 808.549 55.224 808.069 55.544C807.605 55.848 807.245 56.288 806.989 56.864C806.749 57.424 806.629 58.096 806.629 58.88V59.048C806.629 60.36 806.933 61.344 807.541 62C808.165 62.64 809.077 62.96 810.277 62.96C810.693 62.96 811.157 62.912 811.669 62.816C812.197 62.704 812.693 62.52 813.157 62.264C813.493 62.072 813.789 61.992 814.045 62.024C814.301 62.04 814.501 62.128 814.645 62.288C814.805 62.448 814.901 62.648 814.933 62.888C814.965 63.112 814.917 63.344 814.789 63.584C814.677 63.824 814.477 64.032 814.189 64.208C813.629 64.56 812.981 64.824 812.245 65C811.525 65.16 810.853 65.24 810.229 65.24ZM822.877 65.24C821.645 65.24 820.573 64.992 819.661 64.496C818.749 63.984 818.045 63.264 817.549 62.336C817.053 61.408 816.805 60.32 816.805 59.072C816.805 58.128 816.941 57.288 817.213 56.552C817.501 55.8 817.909 55.168 818.437 54.656C818.965 54.128 819.605 53.728 820.357 53.456C821.109 53.168 821.949 53.024 822.877 53.024C823.405 53.024 823.973 53.096 824.581 53.24C825.205 53.384 825.789 53.624 826.333 53.96C826.589 54.12 826.757 54.312 826.837 54.536C826.917 54.76 826.933 54.992 826.885 55.232C826.837 55.456 826.733 55.656 826.573 55.832C826.429 55.992 826.245 56.096 826.021 56.144C825.797 56.176 825.549 56.12 825.277 55.976C824.925 55.768 824.565 55.616 824.197 55.52C823.829 55.408 823.477 55.352 823.141 55.352C822.613 55.352 822.149 55.44 821.749 55.616C821.349 55.776 821.005 56.016 820.717 56.336C820.445 56.64 820.237 57.024 820.093 57.488C819.949 57.952 819.877 58.488 819.877 59.096C819.877 60.28 820.157 61.216 820.717 61.904C821.293 62.576 822.101 62.912 823.141 62.912C823.477 62.912 823.821 62.864 824.173 62.768C824.541 62.672 824.909 62.52 825.277 62.312C825.549 62.168 825.789 62.12 825.997 62.168C826.221 62.216 826.405 62.328 826.549 62.504C826.693 62.664 826.781 62.864 826.813 63.104C826.845 63.328 826.813 63.552 826.717 63.776C826.637 64 826.477 64.184 826.237 64.328C825.709 64.648 825.149 64.88 824.557 65.024C823.965 65.168 823.405 65.24 822.877 65.24ZM834.323 65.24C832.995 65.24 831.851 64.992 830.891 64.496C829.931 64 829.187 63.296 828.659 62.384C828.147 61.472 827.891 60.392 827.891 59.144C827.891 57.928 828.139 56.864 828.635 55.952C829.147 55.04 829.843 54.328 830.723 53.816C831.619 53.288 832.635 53.024 833.771 53.024C834.603 53.024 835.347 53.16 836.003 53.432C836.675 53.704 837.243 54.096 837.707 54.608C838.187 55.12 838.547 55.744 838.787 56.48C839.043 57.2 839.171 58.016 839.171 58.928C839.171 59.216 839.067 59.44 838.859 59.6C838.667 59.744 838.387 59.816 838.019 59.816H830.315V58.088H837.059L836.675 58.448C836.675 57.712 836.563 57.096 836.339 56.6C836.131 56.104 835.819 55.728 835.403 55.472C835.003 55.2 834.499 55.064 833.891 55.064C833.219 55.064 832.643 55.224 832.163 55.544C831.699 55.848 831.339 56.288 831.083 56.864C830.843 57.424 830.723 58.096 830.723 58.88V59.048C830.723 60.36 831.027 61.344 831.635 62C832.259 62.64 833.171 62.96 834.371 62.96C834.787 62.96 835.251 62.912 835.763 62.816C836.291 62.704 836.787 62.52 837.251 62.264C837.587 62.072 837.883 61.992 838.139 62.024C838.395 62.04 838.595 62.128 838.739 62.288C838.899 62.448 838.995 62.648 839.027 62.888C839.059 63.112 839.011 63.344 838.883 63.584C838.771 63.824 838.571 64.032 838.283 64.208C837.723 64.56 837.075 64.824 836.339 65C835.619 65.16 834.947 65.24 834.323 65.24ZM843.035 65.168C842.555 65.168 842.187 65.024 841.931 64.736C841.675 64.448 841.547 64.048 841.547 63.536V54.728C841.547 54.2 841.675 53.8 841.931 53.528C842.187 53.24 842.555 53.096 843.035 53.096C843.515 53.096 843.883 53.24 844.139 53.528C844.411 53.8 844.547 54.2 844.547 54.728V63.536C844.547 64.048 844.419 64.448 844.163 64.736C843.907 65.024 843.531 65.168 843.035 65.168ZM843.035 50.864C842.475 50.864 842.035 50.728 841.715 50.456C841.411 50.168 841.259 49.776 841.259 49.28C841.259 48.768 841.411 48.376 841.715 48.104C842.035 47.832 842.475 47.696 843.035 47.696C843.611 47.696 844.051 47.832 844.355 48.104C844.659 48.376 844.811 48.768 844.811 49.28C844.811 49.776 844.659 50.168 844.355 50.456C844.051 50.728 843.611 50.864 843.035 50.864ZM852.416 65.192C852.016 65.192 851.664 65.088 851.36 64.88C851.072 64.672 850.832 64.352 850.64 63.92L846.824 55.064C846.68 54.712 846.624 54.384 846.656 54.08C846.704 53.776 846.848 53.536 847.088 53.36C847.344 53.168 847.688 53.072 848.12 53.072C848.488 53.072 848.784 53.16 849.008 53.336C849.232 53.496 849.432 53.808 849.608 54.272L852.848 62.36H852.128L855.464 54.248C855.64 53.8 855.84 53.496 856.064 53.336C856.304 53.16 856.624 53.072 857.024 53.072C857.376 53.072 857.656 53.168 857.864 53.36C858.072 53.536 858.2 53.776 858.248 54.08C858.296 54.368 858.24 54.688 858.08 55.04L854.192 63.92C854.016 64.352 853.776 64.672 853.472 64.88C853.184 65.088 852.832 65.192 852.416 65.192ZM865.87 65.24C864.542 65.24 863.398 64.992 862.438 64.496C861.478 64 860.734 63.296 860.206 62.384C859.694 61.472 859.438 60.392 859.438 59.144C859.438 57.928 859.686 56.864 860.182 55.952C860.694 55.04 861.39 54.328 862.27 53.816C863.166 53.288 864.182 53.024 865.318 53.024C866.15 53.024 866.894 53.16 867.55 53.432C868.222 53.704 868.79 54.096 869.254 54.608C869.734 55.12 870.094 55.744 870.334 56.48C870.59 57.2 870.718 58.016 870.718 58.928C870.718 59.216 870.614 59.44 870.406 59.6C870.214 59.744 869.934 59.816 869.566 59.816H861.862V58.088H868.606L868.222 58.448C868.222 57.712 868.11 57.096 867.886 56.6C867.678 56.104 867.366 55.728 866.95 55.472C866.55 55.2 866.046 55.064 865.438 55.064C864.766 55.064 864.19 55.224 863.71 55.544C863.246 55.848 862.886 56.288 862.63 56.864C862.39 57.424 862.27 58.096 862.27 58.88V59.048C862.27 60.36 862.574 61.344 863.182 62C863.806 62.64 864.718 62.96 865.918 62.96C866.334 62.96 866.798 62.912 867.31 62.816C867.838 62.704 868.334 62.52 868.798 62.264C869.134 62.072 869.43 61.992 869.686 62.024C869.942 62.04 870.142 62.128 870.286 62.288C870.446 62.448 870.542 62.648 870.574 62.888C870.606 63.112 870.558 63.344 870.43 63.584C870.318 63.824 870.118 64.032 869.83 64.208C869.27 64.56 868.622 64.824 867.886 65C867.166 65.16 866.494 65.24 865.87 65.24ZM880.065 65.192C879.681 65.192 879.369 65.104 879.129 64.928C878.905 64.752 878.769 64.52 878.721 64.232C878.673 63.928 878.729 63.592 878.889 63.224L885.225 49.184C885.433 48.72 885.681 48.392 885.969 48.2C886.273 47.992 886.617 47.888 887.001 47.888C887.369 47.888 887.697 47.992 887.985 48.2C888.289 48.392 888.545 48.72 888.753 49.184L895.113 63.224C895.289 63.592 895.353 63.928 895.305 64.232C895.257 64.536 895.121 64.776 894.897 64.952C894.673 65.112 894.377 65.192 894.009 65.192C893.561 65.192 893.209 65.088 892.953 64.88C892.713 64.656 892.497 64.32 892.305 63.872L890.745 60.248L892.041 61.088H881.913L883.209 60.248L881.673 63.872C881.465 64.336 881.249 64.672 881.025 64.88C880.801 65.088 880.481 65.192 880.065 65.192ZM886.953 51.416L883.593 59.408L882.969 58.64H890.985L890.385 59.408L887.001 51.416H886.953ZM898.957 65.192C898.477 65.192 898.109 65.064 897.853 64.808C897.597 64.536 897.469 64.152 897.469 63.656V54.584C897.469 54.088 897.597 53.712 897.853 53.456C898.109 53.2 898.469 53.072 898.933 53.072C899.397 53.072 899.757 53.2 900.013 53.456C900.269 53.712 900.397 54.088 900.397 54.584V56.216L900.133 55.616C900.485 54.768 901.029 54.128 901.765 53.696C902.517 53.248 903.365 53.024 904.309 53.024C905.253 53.024 906.029 53.2 906.637 53.552C907.245 53.904 907.701 54.44 908.005 55.16C908.309 55.864 908.461 56.76 908.461 57.848V63.656C908.461 64.152 908.333 64.536 908.077 64.808C907.821 65.064 907.453 65.192 906.973 65.192C906.493 65.192 906.117 65.064 905.845 64.808C905.589 64.536 905.461 64.152 905.461 63.656V57.992C905.461 57.08 905.285 56.416 904.933 56C904.597 55.584 904.069 55.376 903.349 55.376C902.469 55.376 901.765 55.656 901.237 56.216C900.725 56.76 900.469 57.488 900.469 58.4V63.656C900.469 64.68 899.965 65.192 898.957 65.192ZM918.479 65.192C918.095 65.192 917.783 65.104 917.543 64.928C917.319 64.752 917.183 64.52 917.135 64.232C917.087 63.928 917.143 63.592 917.303 63.224L923.639 49.184C923.847 48.72 924.095 48.392 924.383 48.2C924.687 47.992 925.031 47.888 925.415 47.888C925.783 47.888 926.111 47.992 926.399 48.2C926.703 48.392 926.959 48.72 927.167 49.184L933.527 63.224C933.703 63.592 933.767 63.928 933.719 64.232C933.671 64.536 933.535 64.776 933.311 64.952C933.087 65.112 932.791 65.192 932.423 65.192C931.975 65.192 931.623 65.088 931.367 64.88C931.127 64.656 930.911 64.32 930.719 63.872L929.159 60.248L930.455 61.088H920.327L921.623 60.248L920.087 63.872C919.879 64.336 919.663 64.672 919.439 64.88C919.215 65.088 918.895 65.192 918.479 65.192ZM925.367 51.416L922.007 59.408L921.383 58.64H929.399L928.799 59.408L925.415 51.416H925.367ZM939.891 65.24C938.563 65.24 937.563 64.864 936.891 64.112C936.219 63.344 935.883 62.224 935.883 60.752V49.4C935.883 48.904 936.011 48.528 936.267 48.272C936.523 48.016 936.891 47.888 937.371 47.888C937.851 47.888 938.219 48.016 938.475 48.272C938.747 48.528 938.883 48.904 938.883 49.4V60.608C938.883 61.344 939.035 61.888 939.339 62.24C939.659 62.592 940.107 62.768 940.683 62.768C940.811 62.768 940.931 62.768 941.043 62.768C941.155 62.752 941.267 62.736 941.379 62.72C941.603 62.688 941.755 62.752 941.835 62.912C941.915 63.056 941.955 63.36 941.955 63.824C941.955 64.224 941.875 64.536 941.715 64.76C941.555 64.984 941.291 65.12 940.923 65.168C940.763 65.184 940.595 65.2 940.419 65.216C940.243 65.232 940.067 65.24 939.891 65.24ZM949.214 65.24C947.886 65.24 946.742 64.992 945.782 64.496C944.822 64 944.078 63.296 943.55 62.384C943.038 61.472 942.782 60.392 942.782 59.144C942.782 57.928 943.03 56.864 943.526 55.952C944.038 55.04 944.734 54.328 945.614 53.816C946.51 53.288 947.526 53.024 948.662 53.024C949.494 53.024 950.238 53.16 950.894 53.432C951.566 53.704 952.134 54.096 952.598 54.608C953.078 55.12 953.438 55.744 953.678 56.48C953.934 57.2 954.062 58.016 954.062 58.928C954.062 59.216 953.958 59.44 953.75 59.6C953.558 59.744 953.278 59.816 952.91 59.816H945.206V58.088H951.95L951.566 58.448C951.566 57.712 951.454 57.096 951.23 56.6C951.022 56.104 950.71 55.728 950.294 55.472C949.894 55.2 949.39 55.064 948.782 55.064C948.11 55.064 947.534 55.224 947.054 55.544C946.59 55.848 946.23 56.288 945.974 56.864C945.734 57.424 945.614 58.096 945.614 58.88V59.048C945.614 60.36 945.918 61.344 946.526 62C947.15 62.64 948.062 62.96 949.262 62.96C949.678 62.96 950.142 62.912 950.654 62.816C951.182 62.704 951.678 62.52 952.142 62.264C952.478 62.072 952.774 61.992 953.03 62.024C953.286 62.04 953.486 62.128 953.63 62.288C953.79 62.448 953.886 62.648 953.918 62.888C953.95 63.112 953.902 63.344 953.774 63.584C953.662 63.824 953.462 64.032 953.174 64.208C952.614 64.56 951.966 64.824 951.23 65C950.51 65.16 949.838 65.24 949.214 65.24ZM957.973 65.192C957.477 65.192 957.093 65.064 956.821 64.808C956.565 64.536 956.437 64.152 956.437 63.656V54.584C956.437 54.088 956.565 53.712 956.821 53.456C957.077 53.2 957.437 53.072 957.901 53.072C958.365 53.072 958.725 53.2 958.981 53.456C959.237 53.712 959.365 54.088 959.365 54.584V56.096H959.125C959.349 55.136 959.789 54.408 960.445 53.912C961.101 53.416 961.973 53.12 963.061 53.024C963.397 52.992 963.661 53.08 963.853 53.288C964.061 53.48 964.181 53.784 964.213 54.2C964.245 54.6 964.149 54.928 963.925 55.184C963.717 55.424 963.397 55.568 962.965 55.616L962.437 55.664C961.461 55.76 960.725 56.064 960.229 56.576C959.733 57.072 959.485 57.776 959.485 58.688V63.656C959.485 64.152 959.357 64.536 959.101 64.808C958.845 65.064 958.469 65.192 957.973 65.192ZM971.892 65.24C970.852 65.24 969.98 65.064 969.276 64.712C968.588 64.36 968.076 63.848 967.74 63.176C967.404 62.488 967.236 61.64 967.236 60.632V55.52H965.988C965.604 55.52 965.308 55.424 965.1 55.232C964.892 55.024 964.788 54.744 964.788 54.392C964.788 54.024 964.892 53.744 965.1 53.552C965.308 53.36 965.604 53.264 965.988 53.264H967.236V51.08C967.236 50.584 967.364 50.208 967.62 49.952C967.892 49.696 968.268 49.568 968.748 49.568C969.228 49.568 969.596 49.696 969.852 49.952C970.108 50.208 970.236 50.584 970.236 51.08V53.264H972.78C973.164 53.264 973.46 53.36 973.668 53.552C973.876 53.744 973.98 54.024 973.98 54.392C973.98 54.744 973.876 55.024 973.668 55.232C973.46 55.424 973.164 55.52 972.78 55.52H970.236V60.464C970.236 61.232 970.404 61.808 970.74 62.192C971.076 62.576 971.62 62.768 972.372 62.768C972.644 62.768 972.884 62.744 973.092 62.696C973.3 62.648 973.484 62.616 973.644 62.6C973.836 62.584 973.996 62.648 974.124 62.792C974.252 62.92 974.316 63.192 974.316 63.608C974.316 63.928 974.26 64.216 974.148 64.472C974.052 64.712 973.868 64.88 973.596 64.976C973.388 65.04 973.116 65.096 972.78 65.144C972.444 65.208 972.148 65.24 971.892 65.24Z" fill="black"/>
<path d="M255.948 257.217C254.777 258.389 254.777 260.288 255.948 261.46L275.04 280.551C276.212 281.723 278.111 281.723 279.283 280.551C280.454 279.38 280.454 277.48 279.283 276.309L262.312 259.338L279.283 242.368C280.454 241.196 280.454 239.297 279.283 238.125C278.111 236.953 276.212 236.953 275.04 238.125L255.948 257.217ZM394.845 256.338H258.07V262.338H394.845V256.338Z" fill="#1578EC"/>
<path d="M382.655 65.24C380.895 65.24 379.383 64.888 378.119 64.184C376.871 63.464 375.911 62.456 375.239 61.16C374.567 59.848 374.231 58.304 374.231 56.528C374.231 55.2 374.423 54.008 374.807 52.952C375.191 51.88 375.743 50.968 376.463 50.216C377.183 49.448 378.063 48.864 379.103 48.464C380.159 48.048 381.343 47.84 382.655 47.84C383.535 47.84 384.399 47.952 385.247 48.176C386.095 48.4 386.839 48.72 387.479 49.136C387.815 49.344 388.039 49.6 388.151 49.904C388.263 50.192 388.287 50.48 388.223 50.768C388.159 51.04 388.023 51.272 387.815 51.464C387.623 51.656 387.375 51.768 387.071 51.8C386.783 51.816 386.463 51.712 386.111 51.488C385.615 51.168 385.079 50.936 384.503 50.792C383.927 50.648 383.343 50.576 382.751 50.576C381.615 50.576 380.655 50.808 379.871 51.272C379.087 51.736 378.495 52.408 378.095 53.288C377.695 54.168 377.495 55.248 377.495 56.528C377.495 57.792 377.695 58.872 378.095 59.768C378.495 60.664 379.087 61.344 379.871 61.808C380.655 62.272 381.615 62.504 382.751 62.504C383.359 62.504 383.959 62.432 384.551 62.288C385.143 62.128 385.703 61.888 386.231 61.568C386.583 61.36 386.895 61.272 387.167 61.304C387.455 61.32 387.695 61.416 387.887 61.592C388.079 61.768 388.207 61.992 388.271 62.264C388.335 62.52 388.319 62.792 388.223 63.08C388.127 63.352 387.935 63.592 387.647 63.8C387.007 64.264 386.239 64.624 385.343 64.88C384.463 65.12 383.567 65.24 382.655 65.24ZM392.296 65.192C391.816 65.192 391.448 65.064 391.192 64.808C390.936 64.536 390.808 64.152 390.808 63.656V49.4C390.808 48.904 390.936 48.528 391.192 48.272C391.448 48.016 391.816 47.888 392.296 47.888C392.776 47.888 393.144 48.016 393.4 48.272C393.672 48.528 393.808 48.904 393.808 49.4V55.616H393.472C393.824 54.768 394.368 54.128 395.104 53.696C395.856 53.248 396.704 53.024 397.648 53.024C398.592 53.024 399.368 53.2 399.976 53.552C400.584 53.904 401.04 54.44 401.344 55.16C401.648 55.864 401.8 56.76 401.8 57.848V63.656C401.8 64.152 401.672 64.536 401.416 64.808C401.16 65.064 400.792 65.192 400.312 65.192C399.832 65.192 399.456 65.064 399.184 64.808C398.928 64.536 398.8 64.152 398.8 63.656V57.992C398.8 57.08 398.624 56.416 398.272 56C397.936 55.584 397.408 55.376 396.688 55.376C395.808 55.376 395.104 55.656 394.576 56.216C394.064 56.76 393.808 57.488 393.808 58.4V63.656C393.808 64.68 393.304 65.192 392.296 65.192ZM410.199 65.24C408.983 65.24 407.927 64.992 407.031 64.496C406.135 64 405.439 63.296 404.943 62.384C404.447 61.456 404.199 60.368 404.199 59.12C404.199 58.176 404.335 57.336 404.607 56.6C404.895 55.848 405.303 55.208 405.831 54.68C406.359 54.136 406.991 53.728 407.727 53.456C408.463 53.168 409.287 53.024 410.199 53.024C411.415 53.024 412.471 53.272 413.367 53.768C414.263 54.264 414.959 54.968 415.455 55.88C415.951 56.792 416.199 57.872 416.199 59.12C416.199 60.064 416.055 60.912 415.767 61.664C415.495 62.416 415.095 63.064 414.567 63.608C414.039 64.136 413.407 64.544 412.671 64.832C411.935 65.104 411.111 65.24 410.199 65.24ZM410.199 62.96C410.791 62.96 411.311 62.816 411.759 62.528C412.207 62.24 412.551 61.816 412.791 61.256C413.047 60.68 413.175 59.968 413.175 59.12C413.175 57.84 412.903 56.888 412.359 56.264C411.815 55.624 411.095 55.304 410.199 55.304C409.607 55.304 409.087 55.448 408.639 55.736C408.191 56.008 407.839 56.432 407.583 57.008C407.343 57.568 407.223 58.272 407.223 59.12C407.223 60.384 407.495 61.344 408.039 62C408.583 62.64 409.303 62.96 410.199 62.96ZM424.027 65.24C422.811 65.24 421.755 64.992 420.859 64.496C419.963 64 419.267 63.296 418.771 62.384C418.275 61.456 418.027 60.368 418.027 59.12C418.027 58.176 418.163 57.336 418.435 56.6C418.723 55.848 419.131 55.208 419.659 54.68C420.187 54.136 420.819 53.728 421.555 53.456C422.291 53.168 423.115 53.024 424.027 53.024C425.243 53.024 426.299 53.272 427.195 53.768C428.091 54.264 428.787 54.968 429.283 55.88C429.779 56.792 430.027 57.872 430.027 59.12C430.027 60.064 429.883 60.912 429.595 61.664C429.323 62.416 428.923 63.064 428.395 63.608C427.867 64.136 427.235 64.544 426.499 64.832C425.763 65.104 424.939 65.24 424.027 65.24ZM424.027 62.96C424.619 62.96 425.139 62.816 425.587 62.528C426.035 62.24 426.379 61.816 426.619 61.256C426.875 60.68 427.003 59.968 427.003 59.12C427.003 57.84 426.731 56.888 426.187 56.264C425.643 55.624 424.923 55.304 424.027 55.304C423.435 55.304 422.915 55.448 422.467 55.736C422.019 56.008 421.667 56.432 421.411 57.008C421.171 57.568 421.051 58.272 421.051 59.12C421.051 60.384 421.323 61.344 421.867 62C422.411 62.64 423.131 62.96 424.027 62.96ZM436.799 65.24C436.111 65.24 435.383 65.168 434.615 65.024C433.847 64.88 433.159 64.632 432.551 64.28C432.295 64.12 432.111 63.936 431.999 63.728C431.903 63.504 431.863 63.288 431.879 63.08C431.911 62.856 431.991 62.664 432.119 62.504C432.263 62.344 432.439 62.24 432.647 62.192C432.871 62.144 433.111 62.184 433.367 62.312C434.007 62.616 434.607 62.832 435.167 62.96C435.727 63.072 436.279 63.128 436.823 63.128C437.591 63.128 438.159 63 438.527 62.744C438.911 62.472 439.103 62.12 439.103 61.688C439.103 61.32 438.975 61.04 438.719 60.848C438.479 60.64 438.111 60.488 437.615 60.392L435.215 59.936C434.223 59.744 433.463 59.384 432.935 58.856C432.423 58.312 432.167 57.616 432.167 56.768C432.167 56 432.375 55.336 432.791 54.776C433.223 54.216 433.815 53.784 434.567 53.48C435.319 53.176 436.183 53.024 437.159 53.024C437.863 53.024 438.519 53.104 439.127 53.264C439.751 53.408 440.351 53.64 440.927 53.96C441.167 54.088 441.327 54.256 441.407 54.464C441.503 54.672 441.527 54.888 441.479 55.112C441.431 55.32 441.335 55.512 441.191 55.688C441.047 55.848 440.863 55.952 440.639 56C440.431 56.032 440.191 55.984 439.919 55.856C439.423 55.6 438.943 55.416 438.479 55.304C438.031 55.192 437.599 55.136 437.183 55.136C436.399 55.136 435.815 55.272 435.431 55.544C435.063 55.816 434.879 56.176 434.879 56.624C434.879 56.96 434.991 57.24 435.215 57.464C435.439 57.688 435.783 57.84 436.247 57.92L438.647 58.376C439.687 58.568 440.471 58.92 440.999 59.432C441.543 59.944 441.815 60.632 441.815 61.496C441.815 62.664 441.359 63.584 440.447 64.256C439.535 64.912 438.319 65.24 436.799 65.24ZM450.006 65.24C448.678 65.24 447.534 64.992 446.574 64.496C445.614 64 444.87 63.296 444.342 62.384C443.83 61.472 443.574 60.392 443.574 59.144C443.574 57.928 443.822 56.864 444.318 55.952C444.83 55.04 445.526 54.328 446.406 53.816C447.302 53.288 448.318 53.024 449.454 53.024C450.286 53.024 451.03 53.16 451.686 53.432C452.358 53.704 452.926 54.096 453.39 54.608C453.87 55.12 454.23 55.744 454.47 56.48C454.726 57.2 454.854 58.016 454.854 58.928C454.854 59.216 454.75 59.44 454.542 59.6C454.35 59.744 454.07 59.816 453.702 59.816H445.998V58.088H452.742L452.358 58.448C452.358 57.712 452.246 57.096 452.022 56.6C451.814 56.104 451.502 55.728 451.086 55.472C450.686 55.2 450.182 55.064 449.574 55.064C448.902 55.064 448.326 55.224 447.846 55.544C447.382 55.848 447.022 56.288 446.766 56.864C446.526 57.424 446.406 58.096 446.406 58.88V59.048C446.406 60.36 446.71 61.344 447.318 62C447.942 62.64 448.854 62.96 450.054 62.96C450.47 62.96 450.934 62.912 451.446 62.816C451.974 62.704 452.47 62.52 452.934 62.264C453.27 62.072 453.566 61.992 453.822 62.024C454.078 62.04 454.278 62.128 454.422 62.288C454.582 62.448 454.678 62.648 454.71 62.888C454.742 63.112 454.694 63.344 454.566 63.584C454.454 63.824 454.254 64.032 453.966 64.208C453.406 64.56 452.758 64.824 452.022 65C451.302 65.16 450.63 65.24 450.006 65.24ZM469.649 65.192C469.153 65.192 468.769 65.056 468.497 64.784C468.241 64.496 468.113 64.104 468.113 63.608V50.648H463.433C463.017 50.648 462.689 50.536 462.449 50.312C462.225 50.072 462.113 49.752 462.113 49.352C462.113 48.936 462.225 48.624 462.449 48.416C462.689 48.192 463.017 48.08 463.433 48.08H475.865C476.281 48.08 476.601 48.192 476.825 48.416C477.065 48.624 477.185 48.936 477.185 49.352C477.185 49.752 477.065 50.072 476.825 50.312C476.601 50.536 476.281 50.648 475.865 50.648H471.185V63.608C471.185 64.104 471.057 64.496 470.801 64.784C470.545 65.056 470.161 65.192 469.649 65.192ZM482.129 65.24C480.913 65.24 479.857 64.992 478.961 64.496C478.065 64 477.369 63.296 476.873 62.384C476.377 61.456 476.129 60.368 476.129 59.12C476.129 58.176 476.265 57.336 476.537 56.6C476.825 55.848 477.233 55.208 477.761 54.68C478.289 54.136 478.921 53.728 479.657 53.456C480.393 53.168 481.217 53.024 482.129 53.024C483.345 53.024 484.401 53.272 485.297 53.768C486.193 54.264 486.889 54.968 487.385 55.88C487.881 56.792 488.129 57.872 488.129 59.12C488.129 60.064 487.985 60.912 487.697 61.664C487.425 62.416 487.025 63.064 486.497 63.608C485.969 64.136 485.337 64.544 484.601 64.832C483.865 65.104 483.041 65.24 482.129 65.24ZM482.129 62.96C482.721 62.96 483.241 62.816 483.689 62.528C484.137 62.24 484.481 61.816 484.721 61.256C484.977 60.68 485.105 59.968 485.105 59.12C485.105 57.84 484.833 56.888 484.289 56.264C483.745 55.624 483.025 55.304 482.129 55.304C481.537 55.304 481.017 55.448 480.569 55.736C480.121 56.008 479.769 56.432 479.513 57.008C479.273 57.568 479.153 58.272 479.153 59.12C479.153 60.384 479.425 61.344 479.969 62C480.513 62.64 481.233 62.96 482.129 62.96ZM503.024 65.192C502.528 65.192 502.144 65.056 501.872 64.784C501.616 64.496 501.488 64.104 501.488 63.608V50.648H496.808C496.392 50.648 496.064 50.536 495.824 50.312C495.6 50.072 495.488 49.752 495.488 49.352C495.488 48.936 495.6 48.624 495.824 48.416C496.064 48.192 496.392 48.08 496.808 48.08H509.24C509.656 48.08 509.976 48.192 510.2 48.416C510.44 48.624 510.56 48.936 510.56 49.352C510.56 49.752 510.44 50.072 510.2 50.312C509.976 50.536 509.656 50.648 509.24 50.648H504.56V63.608C504.56 64.104 504.432 64.496 504.176 64.784C503.92 65.056 503.536 65.192 503.024 65.192ZM514.016 65.24C513.168 65.24 512.408 65.08 511.736 64.76C511.08 64.424 510.56 63.976 510.176 63.416C509.808 62.856 509.624 62.224 509.624 61.52C509.624 60.656 509.848 59.976 510.296 59.48C510.744 58.968 511.472 58.6 512.48 58.376C513.488 58.152 514.84 58.04 516.536 58.04H517.736V59.768H516.56C515.568 59.768 514.776 59.816 514.184 59.912C513.592 60.008 513.168 60.176 512.912 60.416C512.672 60.64 512.552 60.96 512.552 61.376C512.552 61.904 512.736 62.336 513.104 62.672C513.472 63.008 513.984 63.176 514.64 63.176C515.168 63.176 515.632 63.056 516.032 62.816C516.448 62.56 516.776 62.216 517.016 61.784C517.256 61.352 517.376 60.856 517.376 60.296V57.536C517.376 56.736 517.2 56.16 516.848 55.808C516.496 55.456 515.904 55.28 515.072 55.28C514.608 55.28 514.104 55.336 513.56 55.448C513.032 55.56 512.472 55.752 511.88 56.024C511.576 56.168 511.304 56.208 511.064 56.144C510.84 56.08 510.664 55.952 510.536 55.76C510.408 55.552 510.344 55.328 510.344 55.088C510.344 54.848 510.408 54.616 510.536 54.392C510.664 54.152 510.88 53.976 511.184 53.864C511.92 53.56 512.624 53.344 513.296 53.216C513.984 53.088 514.608 53.024 515.168 53.024C516.32 53.024 517.264 53.2 518 53.552C518.752 53.904 519.312 54.44 519.68 55.16C520.048 55.864 520.232 56.776 520.232 57.896V63.656C520.232 64.152 520.112 64.536 519.872 64.808C519.632 65.064 519.288 65.192 518.84 65.192C518.392 65.192 518.04 65.064 517.784 64.808C517.544 64.536 517.424 64.152 517.424 63.656V62.504H517.616C517.504 63.064 517.28 63.552 516.944 63.968C516.624 64.368 516.216 64.68 515.72 64.904C515.224 65.128 514.656 65.24 514.016 65.24ZM524.765 65.192C524.285 65.192 523.917 65.064 523.661 64.808C523.405 64.536 523.277 64.152 523.277 63.656V49.4C523.277 48.904 523.405 48.528 523.661 48.272C523.917 48.016 524.285 47.888 524.765 47.888C525.245 47.888 525.613 48.016 525.869 48.272C526.141 48.528 526.277 48.904 526.277 49.4V58.256H526.325L530.285 54.08C530.605 53.76 530.885 53.512 531.125 53.336C531.365 53.16 531.693 53.072 532.109 53.072C532.525 53.072 532.837 53.184 533.045 53.408C533.269 53.616 533.381 53.872 533.381 54.176C533.381 54.48 533.237 54.784 532.949 55.088L528.773 59.504V58.256L533.357 63.2C533.645 63.504 533.773 63.816 533.741 64.136C533.725 64.44 533.597 64.696 533.357 64.904C533.117 65.096 532.813 65.192 532.445 65.192C531.997 65.192 531.637 65.104 531.365 64.928C531.109 64.752 530.821 64.488 530.501 64.136L526.325 59.768H526.277V63.656C526.277 64.68 525.773 65.192 524.765 65.192ZM541.693 65.24C540.365 65.24 539.221 64.992 538.261 64.496C537.301 64 536.557 63.296 536.029 62.384C535.517 61.472 535.261 60.392 535.261 59.144C535.261 57.928 535.509 56.864 536.005 55.952C536.517 55.04 537.213 54.328 538.093 53.816C538.989 53.288 540.005 53.024 541.141 53.024C541.973 53.024 542.717 53.16 543.373 53.432C544.045 53.704 544.613 54.096 545.077 54.608C545.557 55.12 545.917 55.744 546.157 56.48C546.413 57.2 546.541 58.016 546.541 58.928C546.541 59.216 546.437 59.44 546.229 59.6C546.037 59.744 545.757 59.816 545.389 59.816H537.685V58.088H544.429L544.045 58.448C544.045 57.712 543.933 57.096 543.709 56.6C543.501 56.104 543.189 55.728 542.773 55.472C542.373 55.2 541.869 55.064 541.261 55.064C540.589 55.064 540.013 55.224 539.533 55.544C539.069 55.848 538.709 56.288 538.453 56.864C538.213 57.424 538.093 58.096 538.093 58.88V59.048C538.093 60.36 538.397 61.344 539.005 62C539.629 62.64 540.541 62.96 541.741 62.96C542.157 62.96 542.621 62.912 543.133 62.816C543.661 62.704 544.157 62.52 544.621 62.264C544.957 62.072 545.253 61.992 545.509 62.024C545.765 62.04 545.965 62.128 546.109 62.288C546.269 62.448 546.365 62.648 546.397 62.888C546.429 63.112 546.381 63.344 546.253 63.584C546.141 63.824 545.941 64.032 545.653 64.208C545.093 64.56 544.445 64.824 543.709 65C542.989 65.16 542.317 65.24 541.693 65.24ZM557.257 65.192C556.761 65.192 556.377 65.056 556.105 64.784C555.849 64.496 555.721 64.104 555.721 63.608V49.64C555.721 49.128 555.857 48.744 556.129 48.488C556.401 48.216 556.785 48.08 557.281 48.08H563.065C564.921 48.08 566.353 48.544 567.361 49.472C568.369 50.4 568.873 51.696 568.873 53.36C568.873 55.024 568.369 56.328 567.361 57.272C566.353 58.2 564.921 58.664 563.065 58.664H558.793V63.608C558.793 64.104 558.665 64.496 558.409 64.784C558.153 65.056 557.769 65.192 557.257 65.192ZM558.793 56.24H562.585C563.673 56.24 564.497 56 565.057 55.52C565.617 55.024 565.897 54.304 565.897 53.36C565.897 52.416 565.617 51.704 565.057 51.224C564.497 50.744 563.673 50.504 562.585 50.504H558.793V56.24ZM572.391 65.192C571.895 65.192 571.511 65.064 571.239 64.808C570.983 64.536 570.855 64.152 570.855 63.656V54.584C570.855 54.088 570.983 53.712 571.239 53.456C571.495 53.2 571.855 53.072 572.319 53.072C572.783 53.072 573.143 53.2 573.399 53.456C573.655 53.712 573.783 54.088 573.783 54.584V56.096H573.543C573.767 55.136 574.207 54.408 574.863 53.912C575.519 53.416 576.391 53.12 577.479 53.024C577.815 52.992 578.079 53.08 578.271 53.288C578.479 53.48 578.599 53.784 578.631 54.2C578.663 54.6 578.567 54.928 578.343 55.184C578.135 55.424 577.815 55.568 577.383 55.616L576.855 55.664C575.879 55.76 575.143 56.064 574.647 56.576C574.151 57.072 573.903 57.776 573.903 58.688V63.656C573.903 64.152 573.775 64.536 573.519 64.808C573.263 65.064 572.887 65.192 572.391 65.192ZM585.85 65.24C584.522 65.24 583.378 64.992 582.418 64.496C581.458 64 580.714 63.296 580.186 62.384C579.674 61.472 579.418 60.392 579.418 59.144C579.418 57.928 579.666 56.864 580.162 55.952C580.674 55.04 581.37 54.328 582.25 53.816C583.146 53.288 584.162 53.024 585.298 53.024C586.13 53.024 586.874 53.16 587.53 53.432C588.202 53.704 588.77 54.096 589.234 54.608C589.714 55.12 590.074 55.744 590.314 56.48C590.57 57.2 590.698 58.016 590.698 58.928C590.698 59.216 590.594 59.44 590.386 59.6C590.194 59.744 589.914 59.816 589.546 59.816H581.842V58.088H588.586L588.202 58.448C588.202 57.712 588.09 57.096 587.866 56.6C587.658 56.104 587.346 55.728 586.93 55.472C586.53 55.2 586.026 55.064 585.418 55.064C584.746 55.064 584.17 55.224 583.69 55.544C583.226 55.848 582.866 56.288 582.61 56.864C582.37 57.424 582.25 58.096 582.25 58.88V59.048C582.25 60.36 582.554 61.344 583.162 62C583.786 62.64 584.698 62.96 585.898 62.96C586.314 62.96 586.778 62.912 587.29 62.816C587.818 62.704 588.314 62.52 588.778 62.264C589.114 62.072 589.41 61.992 589.666 62.024C589.922 62.04 590.122 62.128 590.266 62.288C590.426 62.448 590.522 62.648 590.554 62.888C590.586 63.112 590.538 63.344 590.41 63.584C590.298 63.824 590.098 64.032 589.81 64.208C589.25 64.56 588.602 64.824 587.866 65C587.146 65.16 586.474 65.24 585.85 65.24ZM598.497 65.24C597.265 65.24 596.193 64.992 595.281 64.496C594.369 63.984 593.665 63.264 593.169 62.336C592.673 61.408 592.425 60.32 592.425 59.072C592.425 58.128 592.561 57.288 592.833 56.552C593.121 55.8 593.529 55.168 594.057 54.656C594.585 54.128 595.225 53.728 595.977 53.456C596.729 53.168 597.569 53.024 598.497 53.024C599.025 53.024 599.593 53.096 600.201 53.24C600.825 53.384 601.409 53.624 601.953 53.96C602.209 54.12 602.377 54.312 602.457 54.536C602.537 54.76 602.553 54.992 602.505 55.232C602.457 55.456 602.353 55.656 602.193 55.832C602.049 55.992 601.865 56.096 601.641 56.144C601.417 56.176 601.169 56.12 600.897 55.976C600.545 55.768 600.185 55.616 599.817 55.52C599.449 55.408 599.097 55.352 598.761 55.352C598.233 55.352 597.769 55.44 597.369 55.616C596.969 55.776 596.625 56.016 596.337 56.336C596.065 56.64 595.857 57.024 595.713 57.488C595.569 57.952 595.497 58.488 595.497 59.096C595.497 60.28 595.777 61.216 596.337 61.904C596.913 62.576 597.721 62.912 598.761 62.912C599.097 62.912 599.441 62.864 599.793 62.768C600.161 62.672 600.529 62.52 600.897 62.312C601.169 62.168 601.409 62.12 601.617 62.168C601.841 62.216 602.025 62.328 602.169 62.504C602.313 62.664 602.401 62.864 602.433 63.104C602.465 63.328 602.433 63.552 602.337 63.776C602.257 64 602.097 64.184 601.857 64.328C601.329 64.648 600.769 64.88 600.177 65.024C599.585 65.168 599.025 65.24 598.497 65.24ZM608.187 65.24C607.339 65.24 606.579 65.08 605.907 64.76C605.251 64.424 604.731 63.976 604.347 63.416C603.979 62.856 603.795 62.224 603.795 61.52C603.795 60.656 604.019 59.976 604.467 59.48C604.915 58.968 605.643 58.6 606.651 58.376C607.659 58.152 609.011 58.04 610.707 58.04H611.907V59.768H610.731C609.739 59.768 608.947 59.816 608.355 59.912C607.763 60.008 607.339 60.176 607.083 60.416C606.843 60.64 606.723 60.96 606.723 61.376C606.723 61.904 606.907 62.336 607.275 62.672C607.643 63.008 608.155 63.176 608.811 63.176C609.339 63.176 609.803 63.056 610.203 62.816C610.619 62.56 610.947 62.216 611.187 61.784C611.427 61.352 611.547 60.856 611.547 60.296V57.536C611.547 56.736 611.371 56.16 611.019 55.808C610.667 55.456 610.075 55.28 609.243 55.28C608.779 55.28 608.275 55.336 607.731 55.448C607.203 55.56 606.643 55.752 606.051 56.024C605.747 56.168 605.475 56.208 605.235 56.144C605.011 56.08 604.835 55.952 604.707 55.76C604.579 55.552 604.515 55.328 604.515 55.088C604.515 54.848 604.579 54.616 604.707 54.392C604.835 54.152 605.051 53.976 605.355 53.864C606.091 53.56 606.795 53.344 607.467 53.216C608.155 53.088 608.779 53.024 609.339 53.024C610.491 53.024 611.435 53.2 612.171 53.552C612.923 53.904 613.483 54.44 613.851 55.16C614.219 55.864 614.403 56.776 614.403 57.896V63.656C614.403 64.152 614.283 64.536 614.043 64.808C613.803 65.064 613.459 65.192 613.011 65.192C612.563 65.192 612.211 65.064 611.955 64.808C611.715 64.536 611.595 64.152 611.595 63.656V62.504H611.787C611.675 63.064 611.451 63.552 611.115 63.968C610.795 64.368 610.387 64.68 609.891 64.904C609.395 65.128 608.827 65.24 608.187 65.24ZM621.696 65.24C620.72 65.24 619.912 65.064 619.272 64.712C618.632 64.344 618.152 63.8 617.832 63.08C617.528 62.36 617.376 61.464 617.376 60.392V54.584C617.376 54.072 617.504 53.696 617.76 53.456C618.016 53.2 618.384 53.072 618.864 53.072C619.344 53.072 619.712 53.2 619.968 53.456C620.24 53.696 620.376 54.072 620.376 54.584V60.44C620.376 61.272 620.544 61.888 620.88 62.288C621.216 62.688 621.752 62.888 622.488 62.888C623.288 62.888 623.944 62.616 624.456 62.072C624.968 61.512 625.224 60.776 625.224 59.864V54.584C625.224 54.072 625.352 53.696 625.608 53.456C625.864 53.2 626.232 53.072 626.712 53.072C627.192 53.072 627.56 53.2 627.816 53.456C628.088 53.696 628.224 54.072 628.224 54.584V63.656C628.224 64.68 627.736 65.192 626.76 65.192C626.296 65.192 625.936 65.064 625.68 64.808C625.424 64.536 625.296 64.152 625.296 63.656V61.832L625.632 62.552C625.296 63.416 624.784 64.08 624.096 64.544C623.424 65.008 622.624 65.24 621.696 65.24ZM636.723 65.24C635.683 65.24 634.811 65.064 634.107 64.712C633.419 64.36 632.907 63.848 632.571 63.176C632.235 62.488 632.067 61.64 632.067 60.632V55.52H630.819C630.435 55.52 630.139 55.424 629.931 55.232C629.723 55.024 629.619 54.744 629.619 54.392C629.619 54.024 629.723 53.744 629.931 53.552C630.139 53.36 630.435 53.264 630.819 53.264H632.067V51.08C632.067 50.584 632.195 50.208 632.451 49.952C632.723 49.696 633.099 49.568 633.579 49.568C634.059 49.568 634.427 49.696 634.683 49.952C634.939 50.208 635.067 50.584 635.067 51.08V53.264H637.611C637.995 53.264 638.291 53.36 638.499 53.552C638.707 53.744 638.811 54.024 638.811 54.392C638.811 54.744 638.707 55.024 638.499 55.232C638.291 55.424 637.995 55.52 637.611 55.52H635.067V60.464C635.067 61.232 635.235 61.808 635.571 62.192C635.907 62.576 636.451 62.768 637.203 62.768C637.475 62.768 637.715 62.744 637.923 62.696C638.131 62.648 638.315 62.616 638.475 62.6C638.667 62.584 638.827 62.648 638.955 62.792C639.083 62.92 639.147 63.192 639.147 63.608C639.147 63.928 639.091 64.216 638.979 64.472C638.883 64.712 638.699 64.88 638.427 64.976C638.219 65.04 637.947 65.096 637.611 65.144C637.275 65.208 636.979 65.24 636.723 65.24ZM642.35 65.168C641.87 65.168 641.502 65.024 641.246 64.736C640.99 64.448 640.862 64.048 640.862 63.536V54.728C640.862 54.2 640.99 53.8 641.246 53.528C641.502 53.24 641.87 53.096 642.35 53.096C642.83 53.096 643.198 53.24 643.454 53.528C643.726 53.8 643.862 54.2 643.862 54.728V63.536C643.862 64.048 643.734 64.448 643.478 64.736C643.222 65.024 642.846 65.168 642.35 65.168ZM642.35 50.864C641.79 50.864 641.35 50.728 641.03 50.456C640.726 50.168 640.574 49.776 640.574 49.28C640.574 48.768 640.726 48.376 641.03 48.104C641.35 47.832 641.79 47.696 642.35 47.696C642.926 47.696 643.366 47.832 643.67 48.104C643.974 48.376 644.126 48.768 644.126 49.28C644.126 49.776 643.974 50.168 643.67 50.456C643.366 50.728 642.926 50.864 642.35 50.864ZM652.332 65.24C651.116 65.24 650.06 64.992 649.164 64.496C648.268 64 647.572 63.296 647.076 62.384C646.58 61.456 646.332 60.368 646.332 59.12C646.332 58.176 646.468 57.336 646.74 56.6C647.028 55.848 647.436 55.208 647.964 54.68C648.492 54.136 649.124 53.728 649.86 53.456C650.596 53.168 651.42 53.024 652.332 53.024C653.548 53.024 654.604 53.272 655.5 53.768C656.396 54.264 657.092 54.968 657.588 55.88C658.084 56.792 658.332 57.872 658.332 59.12C658.332 60.064 658.188 60.912 657.9 61.664C657.628 62.416 657.228 63.064 656.7 63.608C656.172 64.136 655.54 64.544 654.804 64.832C654.068 65.104 653.244 65.24 652.332 65.24ZM652.332 62.96C652.924 62.96 653.444 62.816 653.892 62.528C654.34 62.24 654.684 61.816 654.924 61.256C655.18 60.68 655.308 59.968 655.308 59.12C655.308 57.84 655.036 56.888 654.492 56.264C653.948 55.624 653.228 55.304 652.332 55.304C651.74 55.304 651.22 55.448 650.772 55.736C650.324 56.008 649.972 56.432 649.716 57.008C649.476 57.568 649.356 58.272 649.356 59.12C649.356 60.384 649.628 61.344 650.172 62C650.716 62.64 651.436 62.96 652.332 62.96ZM662.296 65.192C661.816 65.192 661.448 65.064 661.192 64.808C660.936 64.536 660.808 64.152 660.808 63.656V54.584C660.808 54.088 660.936 53.712 661.192 53.456C661.448 53.2 661.808 53.072 662.272 53.072C662.736 53.072 663.096 53.2 663.352 53.456C663.608 53.712 663.736 54.088 663.736 54.584V56.216L663.472 55.616C663.824 54.768 664.368 54.128 665.104 53.696C665.856 53.248 666.704 53.024 667.648 53.024C668.592 53.024 669.368 53.2 669.976 53.552C670.584 53.904 671.04 54.44 671.344 55.16C671.648 55.864 671.8 56.76 671.8 57.848V63.656C671.8 64.152 671.672 64.536 671.416 64.808C671.16 65.064 670.792 65.192 670.312 65.192C669.832 65.192 669.456 65.064 669.184 64.808C668.928 64.536 668.8 64.152 668.8 63.656V57.992C668.8 57.08 668.624 56.416 668.272 56C667.936 55.584 667.408 55.376 666.688 55.376C665.808 55.376 665.104 55.656 664.576 56.216C664.064 56.76 663.808 57.488 663.808 58.4V63.656C663.808 64.68 663.304 65.192 662.296 65.192ZM679.143 65.24C678.455 65.24 677.727 65.168 676.959 65.024C676.191 64.88 675.503 64.632 674.895 64.28C674.639 64.12 674.455 63.936 674.343 63.728C674.247 63.504 674.207 63.288 674.223 63.08C674.255 62.856 674.335 62.664 674.463 62.504C674.607 62.344 674.783 62.24 674.991 62.192C675.215 62.144 675.455 62.184 675.711 62.312C676.351 62.616 676.951 62.832 677.511 62.96C678.071 63.072 678.623 63.128 679.167 63.128C679.935 63.128 680.503 63 680.871 62.744C681.255 62.472 681.447 62.12 681.447 61.688C681.447 61.32 681.319 61.04 681.063 60.848C680.823 60.64 680.455 60.488 679.959 60.392L677.559 59.936C676.567 59.744 675.807 59.384 675.279 58.856C674.767 58.312 674.511 57.616 674.511 56.768C674.511 56 674.719 55.336 675.135 54.776C675.567 54.216 676.159 53.784 676.911 53.48C677.663 53.176 678.527 53.024 679.503 53.024C680.207 53.024 680.863 53.104 681.471 53.264C682.095 53.408 682.695 53.64 683.271 53.96C683.511 54.088 683.671 54.256 683.751 54.464C683.847 54.672 683.871 54.888 683.823 55.112C683.775 55.32 683.679 55.512 683.535 55.688C683.391 55.848 683.207 55.952 682.983 56C682.775 56.032 682.535 55.984 682.263 55.856C681.767 55.6 681.287 55.416 680.823 55.304C680.375 55.192 679.943 55.136 679.527 55.136C678.743 55.136 678.159 55.272 677.775 55.544C677.407 55.816 677.223 56.176 677.223 56.624C677.223 56.96 677.335 57.24 677.559 57.464C677.783 57.688 678.127 57.84 678.591 57.92L680.991 58.376C682.031 58.568 682.815 58.92 683.343 59.432C683.887 59.944 684.159 60.632 684.159 61.496C684.159 62.664 683.703 63.584 682.791 64.256C681.879 64.912 680.663 65.24 679.143 65.24Z" fill="black"/>
<path d="M25.3097 65.192C24.8137 65.192 24.4297 65.056 24.1577 64.784C23.9017 64.496 23.7737 64.104 23.7737 63.608V49.64C23.7737 49.128 23.9097 48.744 24.1817 48.488C24.4537 48.216 24.8377 48.08 25.3337 48.08H31.1177C32.9737 48.08 34.4057 48.528 35.4137 49.424C36.4217 50.304 36.9257 51.544 36.9257 53.144C36.9257 54.184 36.6937 55.08 36.2297 55.832C35.7817 56.584 35.1257 57.16 34.2617 57.56C33.3977 57.96 32.3497 58.16 31.1177 58.16L31.3337 57.8H32.1257C32.7817 57.8 33.3497 57.96 33.8297 58.28C34.3257 58.6 34.7577 59.104 35.1257 59.792L36.9257 63.128C37.1177 63.464 37.2057 63.792 37.1897 64.112C37.1737 64.432 37.0537 64.696 36.8297 64.904C36.6057 65.096 36.2777 65.192 35.8457 65.192C35.4137 65.192 35.0617 65.104 34.7897 64.928C34.5177 64.736 34.2777 64.448 34.0697 64.064L31.6457 59.6C31.3577 59.056 31.0137 58.696 30.6137 58.52C30.2297 58.328 29.7337 58.232 29.1257 58.232H26.8457V63.608C26.8457 64.104 26.7177 64.496 26.4617 64.784C26.2057 65.056 25.8217 65.192 25.3097 65.192ZM26.8457 55.952H30.5897C31.6937 55.952 32.5257 55.728 33.0857 55.28C33.6617 54.816 33.9497 54.128 33.9497 53.216C33.9497 52.32 33.6617 51.648 33.0857 51.2C32.5257 50.736 31.6937 50.504 30.5897 50.504H26.8457V55.952ZM45.4181 65.24C44.0901 65.24 42.9461 64.992 41.9861 64.496C41.0261 64 40.2821 63.296 39.7541 62.384C39.2421 61.472 38.9861 60.392 38.9861 59.144C38.9861 57.928 39.2341 56.864 39.7301 55.952C40.2421 55.04 40.9381 54.328 41.8181 53.816C42.7141 53.288 43.7301 53.024 44.8661 53.024C45.6981 53.024 46.4421 53.16 47.0981 53.432C47.7701 53.704 48.3381 54.096 48.8021 54.608C49.2821 55.12 49.6421 55.744 49.8821 56.48C50.1381 57.2 50.2661 58.016 50.2661 58.928C50.2661 59.216 50.1621 59.44 49.9541 59.6C49.7621 59.744 49.4821 59.816 49.1141 59.816H41.4101V58.088H48.1541L47.7701 58.448C47.7701 57.712 47.6581 57.096 47.4341 56.6C47.2261 56.104 46.9141 55.728 46.4981 55.472C46.0981 55.2 45.5941 55.064 44.9861 55.064C44.3141 55.064 43.7381 55.224 43.2581 55.544C42.7941 55.848 42.4341 56.288 42.1781 56.864C41.9381 57.424 41.8181 58.096 41.8181 58.88V59.048C41.8181 60.36 42.1221 61.344 42.7301 62C43.3541 62.64 44.2661 62.96 45.4661 62.96C45.8821 62.96 46.3461 62.912 46.8581 62.816C47.3861 62.704 47.8821 62.52 48.3461 62.264C48.6821 62.072 48.9781 61.992 49.2341 62.024C49.4901 62.04 49.6901 62.128 49.8341 62.288C49.9941 62.448 50.0901 62.648 50.1221 62.888C50.1541 63.112 50.1061 63.344 49.9781 63.584C49.8661 63.824 49.6661 64.032 49.3781 64.208C48.8181 64.56 48.1701 64.824 47.4341 65C46.7141 65.16 46.0421 65.24 45.4181 65.24ZM57.1539 65.24C56.1299 65.24 55.2259 64.992 54.4419 64.496C53.6739 64 53.0739 63.296 52.6419 62.384C52.2099 61.456 51.9939 60.368 51.9939 59.12C51.9939 57.856 52.2099 56.776 52.6419 55.88C53.0739 54.968 53.6739 54.264 54.4419 53.768C55.2259 53.272 56.1299 53.024 57.1539 53.024C58.1299 53.024 58.9779 53.264 59.6979 53.744C60.4339 54.224 60.9299 54.856 61.1859 55.64H60.9219V49.4C60.9219 48.904 61.0499 48.528 61.3059 48.272C61.5619 48.016 61.9299 47.888 62.4099 47.888C62.8899 47.888 63.2579 48.016 63.5139 48.272C63.7859 48.528 63.9219 48.904 63.9219 49.4V63.656C63.9219 64.152 63.7939 64.536 63.5379 64.808C63.2819 65.064 62.9139 65.192 62.4339 65.192C61.9539 65.192 61.5859 65.064 61.3299 64.808C61.0739 64.536 60.9459 64.152 60.9459 63.656V61.784L61.2099 62.504C60.9699 63.336 60.4819 64 59.7459 64.496C59.0099 64.992 58.1459 65.24 57.1539 65.24ZM57.9939 62.96C58.5859 62.96 59.1059 62.816 59.5539 62.528C60.0019 62.24 60.3459 61.816 60.5859 61.256C60.8419 60.68 60.9699 59.968 60.9699 59.12C60.9699 57.84 60.6979 56.888 60.1539 56.264C59.6099 55.624 58.8899 55.304 57.9939 55.304C57.4019 55.304 56.8819 55.448 56.4339 55.736C55.9859 56.008 55.6339 56.432 55.3779 57.008C55.1379 57.568 55.0179 58.272 55.0179 59.12C55.0179 60.384 55.2899 61.344 55.8339 62C56.3779 62.64 57.0979 62.96 57.9939 62.96ZM71.2806 65.24C70.3046 65.24 69.4966 65.064 68.8566 64.712C68.2166 64.344 67.7366 63.8 67.4166 63.08C67.1126 62.36 66.9606 61.464 66.9606 60.392V54.584C66.9606 54.072 67.0886 53.696 67.3446 53.456C67.6006 53.2 67.9686 53.072 68.4486 53.072C68.9286 53.072 69.2966 53.2 69.5526 53.456C69.8246 53.696 69.9606 54.072 69.9606 54.584V60.44C69.9606 61.272 70.1286 61.888 70.4646 62.288C70.8006 62.688 71.3366 62.888 72.0726 62.888C72.8726 62.888 73.5286 62.616 74.0406 62.072C74.5526 61.512 74.8086 60.776 74.8086 59.864V54.584C74.8086 54.072 74.9366 53.696 75.1926 53.456C75.4486 53.2 75.8166 53.072 76.2966 53.072C76.7766 53.072 77.1446 53.2 77.4006 53.456C77.6726 53.696 77.8086 54.072 77.8086 54.584V63.656C77.8086 64.68 77.3206 65.192 76.3446 65.192C75.8806 65.192 75.5206 65.064 75.2646 64.808C75.0086 64.536 74.8806 64.152 74.8806 63.656V61.832L75.2166 62.552C74.8806 63.416 74.3686 64.08 73.6806 64.544C73.0086 65.008 72.2086 65.24 71.2806 65.24ZM86.355 65.24C85.123 65.24 84.051 64.992 83.139 64.496C82.227 63.984 81.523 63.264 81.027 62.336C80.531 61.408 80.283 60.32 80.283 59.072C80.283 58.128 80.419 57.288 80.691 56.552C80.979 55.8 81.387 55.168 81.915 54.656C82.443 54.128 83.083 53.728 83.835 53.456C84.587 53.168 85.427 53.024 86.355 53.024C86.883 53.024 87.451 53.096 88.059 53.24C88.683 53.384 89.267 53.624 89.811 53.96C90.067 54.12 90.235 54.312 90.315 54.536C90.395 54.76 90.411 54.992 90.363 55.232C90.315 55.456 90.211 55.656 90.051 55.832C89.907 55.992 89.723 56.096 89.499 56.144C89.275 56.176 89.027 56.12 88.755 55.976C88.403 55.768 88.043 55.616 87.675 55.52C87.307 55.408 86.955 55.352 86.619 55.352C86.091 55.352 85.627 55.44 85.227 55.616C84.827 55.776 84.483 56.016 84.195 56.336C83.923 56.64 83.715 57.024 83.571 57.488C83.427 57.952 83.355 58.488 83.355 59.096C83.355 60.28 83.635 61.216 84.195 61.904C84.771 62.576 85.579 62.912 86.619 62.912C86.955 62.912 87.299 62.864 87.651 62.768C88.019 62.672 88.387 62.52 88.755 62.312C89.027 62.168 89.267 62.12 89.475 62.168C89.699 62.216 89.883 62.328 90.027 62.504C90.171 62.664 90.259 62.864 90.291 63.104C90.323 63.328 90.291 63.552 90.195 63.776C90.115 64 89.955 64.184 89.715 64.328C89.187 64.648 88.627 64.88 88.035 65.024C87.443 65.168 86.883 65.24 86.355 65.24ZM97.8009 65.24C96.4729 65.24 95.3289 64.992 94.3689 64.496C93.4089 64 92.6649 63.296 92.1369 62.384C91.6249 61.472 91.3689 60.392 91.3689 59.144C91.3689 57.928 91.6169 56.864 92.1129 55.952C92.6249 55.04 93.3209 54.328 94.2009 53.816C95.0969 53.288 96.1129 53.024 97.2489 53.024C98.0809 53.024 98.8249 53.16 99.4809 53.432C100.153 53.704 100.721 54.096 101.185 54.608C101.665 55.12 102.025 55.744 102.265 56.48C102.521 57.2 102.649 58.016 102.649 58.928C102.649 59.216 102.545 59.44 102.337 59.6C102.145 59.744 101.865 59.816 101.497 59.816H93.7929V58.088H100.537L100.153 58.448C100.153 57.712 100.041 57.096 99.8169 56.6C99.6089 56.104 99.2969 55.728 98.8809 55.472C98.4809 55.2 97.9769 55.064 97.3689 55.064C96.6969 55.064 96.1209 55.224 95.6409 55.544C95.1769 55.848 94.8169 56.288 94.5609 56.864C94.3209 57.424 94.2009 58.096 94.2009 58.88V59.048C94.2009 60.36 94.5049 61.344 95.1129 62C95.7369 62.64 96.6489 62.96 97.8489 62.96C98.2649 62.96 98.7289 62.912 99.2409 62.816C99.7689 62.704 100.265 62.52 100.729 62.264C101.065 62.072 101.361 61.992 101.617 62.024C101.873 62.04 102.073 62.128 102.217 62.288C102.377 62.448 102.473 62.648 102.505 62.888C102.537 63.112 102.489 63.344 102.361 63.584C102.249 63.824 102.049 64.032 101.761 64.208C101.201 64.56 100.553 64.824 99.8169 65C99.0969 65.16 98.4249 65.24 97.8009 65.24ZM116.916 65.24C115.876 65.24 115.004 65.064 114.3 64.712C113.612 64.36 113.1 63.848 112.764 63.176C112.428 62.488 112.26 61.64 112.26 60.632V55.52H111.012C110.628 55.52 110.332 55.424 110.124 55.232C109.916 55.024 109.812 54.744 109.812 54.392C109.812 54.024 109.916 53.744 110.124 53.552C110.332 53.36 110.628 53.264 111.012 53.264H112.26V51.08C112.26 50.584 112.388 50.208 112.644 49.952C112.916 49.696 113.292 49.568 113.772 49.568C114.252 49.568 114.62 49.696 114.876 49.952C115.132 50.208 115.26 50.584 115.26 51.08V53.264H117.804C118.188 53.264 118.484 53.36 118.692 53.552C118.9 53.744 119.004 54.024 119.004 54.392C119.004 54.744 118.9 55.024 118.692 55.232C118.484 55.424 118.188 55.52 117.804 55.52H115.26V60.464C115.26 61.232 115.428 61.808 115.764 62.192C116.1 62.576 116.644 62.768 117.396 62.768C117.668 62.768 117.908 62.744 118.116 62.696C118.324 62.648 118.508 62.616 118.668 62.6C118.86 62.584 119.02 62.648 119.148 62.792C119.276 62.92 119.34 63.192 119.34 63.608C119.34 63.928 119.284 64.216 119.172 64.472C119.076 64.712 118.892 64.88 118.62 64.976C118.412 65.04 118.14 65.096 117.804 65.144C117.468 65.208 117.172 65.24 116.916 65.24ZM122.544 65.192C122.064 65.192 121.696 65.064 121.44 64.808C121.184 64.536 121.056 64.152 121.056 63.656V49.4C121.056 48.904 121.184 48.528 121.44 48.272C121.696 48.016 122.064 47.888 122.544 47.888C123.024 47.888 123.392 48.016 123.648 48.272C123.92 48.528 124.056 48.904 124.056 49.4V55.616H123.72C124.072 54.768 124.616 54.128 125.352 53.696C126.104 53.248 126.952 53.024 127.896 53.024C128.84 53.024 129.616 53.2 130.224 53.552C130.832 53.904 131.288 54.44 131.592 55.16C131.896 55.864 132.048 56.76 132.048 57.848V63.656C132.048 64.152 131.92 64.536 131.664 64.808C131.408 65.064 131.04 65.192 130.56 65.192C130.08 65.192 129.704 65.064 129.432 64.808C129.176 64.536 129.048 64.152 129.048 63.656V57.992C129.048 57.08 128.872 56.416 128.52 56C128.184 55.584 127.656 55.376 126.936 55.376C126.056 55.376 125.352 55.656 124.824 56.216C124.312 56.76 124.056 57.488 124.056 58.4V63.656C124.056 64.68 123.552 65.192 122.544 65.192ZM140.879 65.24C139.551 65.24 138.407 64.992 137.447 64.496C136.487 64 135.743 63.296 135.215 62.384C134.703 61.472 134.447 60.392 134.447 59.144C134.447 57.928 134.695 56.864 135.191 55.952C135.703 55.04 136.399 54.328 137.279 53.816C138.175 53.288 139.191 53.024 140.327 53.024C141.159 53.024 141.903 53.16 142.559 53.432C143.231 53.704 143.799 54.096 144.263 54.608C144.743 55.12 145.103 55.744 145.343 56.48C145.599 57.2 145.727 58.016 145.727 58.928C145.727 59.216 145.623 59.44 145.415 59.6C145.223 59.744 144.943 59.816 144.575 59.816H136.871V58.088H143.615L143.231 58.448C143.231 57.712 143.119 57.096 142.895 56.6C142.687 56.104 142.375 55.728 141.959 55.472C141.559 55.2 141.055 55.064 140.447 55.064C139.775 55.064 139.199 55.224 138.719 55.544C138.255 55.848 137.895 56.288 137.639 56.864C137.399 57.424 137.279 58.096 137.279 58.88V59.048C137.279 60.36 137.583 61.344 138.191 62C138.815 62.64 139.727 62.96 140.927 62.96C141.343 62.96 141.807 62.912 142.319 62.816C142.847 62.704 143.343 62.52 143.807 62.264C144.143 62.072 144.439 61.992 144.695 62.024C144.951 62.04 145.151 62.128 145.295 62.288C145.455 62.448 145.551 62.648 145.583 62.888C145.615 63.112 145.567 63.344 145.439 63.584C145.327 63.824 145.127 64.032 144.839 64.208C144.279 64.56 143.631 64.824 142.895 65C142.175 65.16 141.503 65.24 140.879 65.24ZM160.739 65.24C160.035 65.24 159.331 65.184 158.627 65.072C157.923 64.976 157.259 64.824 156.635 64.616C156.011 64.392 155.451 64.12 154.955 63.8C154.667 63.608 154.467 63.376 154.355 63.104C154.243 62.832 154.203 62.568 154.235 62.312C154.283 62.04 154.387 61.808 154.547 61.616C154.723 61.408 154.939 61.28 155.195 61.232C155.451 61.184 155.731 61.256 156.035 61.448C156.739 61.864 157.483 62.168 158.267 62.36C159.051 62.552 159.875 62.648 160.739 62.648C162.003 62.648 162.923 62.44 163.499 62.024C164.075 61.592 164.363 61.04 164.363 60.368C164.363 59.808 164.155 59.368 163.739 59.048C163.339 58.728 162.643 58.464 161.651 58.256L159.011 57.704C157.491 57.384 156.355 56.848 155.603 56.096C154.867 55.328 154.499 54.32 154.499 53.072C154.499 52.288 154.659 51.576 154.979 50.936C155.299 50.296 155.747 49.744 156.323 49.28C156.915 48.816 157.611 48.464 158.411 48.224C159.227 47.968 160.123 47.84 161.099 47.84C162.059 47.84 162.971 47.96 163.835 48.2C164.699 48.44 165.475 48.792 166.163 49.256C166.419 49.432 166.587 49.648 166.667 49.904C166.763 50.16 166.787 50.416 166.739 50.672C166.691 50.912 166.579 51.12 166.403 51.296C166.227 51.472 166.003 51.576 165.731 51.608C165.475 51.64 165.179 51.56 164.843 51.368C164.251 51.032 163.651 50.792 163.043 50.648C162.435 50.504 161.779 50.432 161.075 50.432C160.339 50.432 159.707 50.536 159.179 50.744C158.651 50.952 158.243 51.248 157.955 51.632C157.683 52 157.547 52.44 157.547 52.952C157.547 53.528 157.739 53.992 158.123 54.344C158.507 54.68 159.163 54.944 160.091 55.136L162.707 55.688C164.291 56.024 165.467 56.552 166.235 57.272C167.019 57.992 167.411 58.952 167.411 60.152C167.411 60.92 167.251 61.616 166.931 62.24C166.627 62.864 166.179 63.4 165.587 63.848C165.011 64.296 164.315 64.64 163.499 64.88C162.683 65.12 161.763 65.24 160.739 65.24ZM171.247 69.512C170.767 69.512 170.399 69.384 170.143 69.128C169.887 68.872 169.759 68.496 169.759 68V54.584C169.759 54.088 169.887 53.712 170.143 53.456C170.399 53.2 170.759 53.072 171.223 53.072C171.703 53.072 172.071 53.2 172.327 53.456C172.583 53.712 172.711 54.088 172.711 54.584V56.456L172.447 55.736C172.687 54.92 173.175 54.264 173.911 53.768C174.663 53.272 175.535 53.024 176.527 53.024C177.551 53.024 178.447 53.272 179.215 53.768C179.999 54.264 180.607 54.968 181.039 55.88C181.471 56.776 181.687 57.856 181.687 59.12C181.687 60.368 181.471 61.456 181.039 62.384C180.607 63.296 180.007 64 179.239 64.496C178.471 64.992 177.567 65.24 176.527 65.24C175.551 65.24 174.695 65 173.959 64.52C173.223 64.024 172.727 63.384 172.471 62.6H172.759V68C172.759 68.496 172.623 68.872 172.351 69.128C172.095 69.384 171.727 69.512 171.247 69.512ZM175.687 62.96C176.279 62.96 176.799 62.816 177.247 62.528C177.695 62.24 178.039 61.816 178.279 61.256C178.535 60.68 178.663 59.968 178.663 59.12C178.663 57.84 178.391 56.888 177.847 56.264C177.303 55.624 176.583 55.304 175.687 55.304C175.095 55.304 174.575 55.448 174.127 55.736C173.679 56.008 173.327 56.432 173.071 57.008C172.831 57.568 172.711 58.272 172.711 59.12C172.711 60.384 172.983 61.344 173.527 62C174.071 62.64 174.791 62.96 175.687 62.96ZM185.686 65.192C185.19 65.192 184.806 65.064 184.534 64.808C184.278 64.536 184.15 64.152 184.15 63.656V54.584C184.15 54.088 184.278 53.712 184.534 53.456C184.79 53.2 185.15 53.072 185.614 53.072C186.078 53.072 186.438 53.2 186.694 53.456C186.95 53.712 187.078 54.088 187.078 54.584V56.096H186.838C187.062 55.136 187.502 54.408 188.158 53.912C188.814 53.416 189.686 53.12 190.774 53.024C191.11 52.992 191.374 53.08 191.566 53.288C191.774 53.48 191.894 53.784 191.926 54.2C191.958 54.6 191.862 54.928 191.638 55.184C191.43 55.424 191.11 55.568 190.678 55.616L190.15 55.664C189.174 55.76 188.438 56.064 187.942 56.576C187.446 57.072 187.198 57.776 187.198 58.688V63.656C187.198 64.152 187.07 64.536 186.814 64.808C186.558 65.064 186.182 65.192 185.686 65.192ZM199.145 65.24C197.817 65.24 196.673 64.992 195.713 64.496C194.753 64 194.009 63.296 193.481 62.384C192.969 61.472 192.713 60.392 192.713 59.144C192.713 57.928 192.961 56.864 193.457 55.952C193.969 55.04 194.665 54.328 195.545 53.816C196.441 53.288 197.457 53.024 198.593 53.024C199.425 53.024 200.169 53.16 200.825 53.432C201.497 53.704 202.065 54.096 202.529 54.608C203.009 55.12 203.369 55.744 203.609 56.48C203.865 57.2 203.993 58.016 203.993 58.928C203.993 59.216 203.889 59.44 203.681 59.6C203.489 59.744 203.209 59.816 202.841 59.816H195.137V58.088H201.881L201.497 58.448C201.497 57.712 201.385 57.096 201.161 56.6C200.953 56.104 200.641 55.728 200.225 55.472C199.825 55.2 199.321 55.064 198.713 55.064C198.041 55.064 197.465 55.224 196.985 55.544C196.521 55.848 196.161 56.288 195.905 56.864C195.665 57.424 195.545 58.096 195.545 58.88V59.048C195.545 60.36 195.849 61.344 196.457 62C197.081 62.64 197.993 62.96 199.193 62.96C199.609 62.96 200.073 62.912 200.585 62.816C201.113 62.704 201.609 62.52 202.073 62.264C202.409 62.072 202.705 61.992 202.961 62.024C203.217 62.04 203.417 62.128 203.561 62.288C203.721 62.448 203.817 62.648 203.849 62.888C203.881 63.112 203.833 63.344 203.705 63.584C203.593 63.824 203.393 64.032 203.105 64.208C202.545 64.56 201.897 64.824 201.161 65C200.441 65.16 199.769 65.24 199.145 65.24ZM210.233 65.24C209.385 65.24 208.625 65.08 207.953 64.76C207.297 64.424 206.777 63.976 206.393 63.416C206.025 62.856 205.841 62.224 205.841 61.52C205.841 60.656 206.065 59.976 206.513 59.48C206.961 58.968 207.689 58.6 208.697 58.376C209.705 58.152 211.057 58.04 212.753 58.04H213.953V59.768H212.777C211.785 59.768 210.993 59.816 210.401 59.912C209.809 60.008 209.385 60.176 209.129 60.416C208.889 60.64 208.769 60.96 208.769 61.376C208.769 61.904 208.953 62.336 209.321 62.672C209.689 63.008 210.201 63.176 210.857 63.176C211.385 63.176 211.849 63.056 212.249 62.816C212.665 62.56 212.993 62.216 213.233 61.784C213.473 61.352 213.593 60.856 213.593 60.296V57.536C213.593 56.736 213.417 56.16 213.065 55.808C212.713 55.456 212.121 55.28 211.289 55.28C210.825 55.28 210.321 55.336 209.777 55.448C209.249 55.56 208.689 55.752 208.097 56.024C207.793 56.168 207.521 56.208 207.281 56.144C207.057 56.08 206.881 55.952 206.753 55.76C206.625 55.552 206.561 55.328 206.561 55.088C206.561 54.848 206.625 54.616 206.753 54.392C206.881 54.152 207.097 53.976 207.401 53.864C208.137 53.56 208.841 53.344 209.513 53.216C210.201 53.088 210.825 53.024 211.385 53.024C212.537 53.024 213.481 53.2 214.217 53.552C214.969 53.904 215.529 54.44 215.897 55.16C216.265 55.864 216.449 56.776 216.449 57.896V63.656C216.449 64.152 216.329 64.536 216.089 64.808C215.849 65.064 215.505 65.192 215.057 65.192C214.609 65.192 214.257 65.064 214.001 64.808C213.761 64.536 213.641 64.152 213.641 63.656V62.504H213.833C213.721 63.064 213.497 63.552 213.161 63.968C212.841 64.368 212.433 64.68 211.937 64.904C211.441 65.128 210.873 65.24 210.233 65.24ZM224.006 65.24C222.982 65.24 222.078 64.992 221.294 64.496C220.526 64 219.926 63.296 219.494 62.384C219.062 61.456 218.846 60.368 218.846 59.12C218.846 57.856 219.062 56.776 219.494 55.88C219.926 54.968 220.526 54.264 221.294 53.768C222.078 53.272 222.982 53.024 224.006 53.024C224.982 53.024 225.83 53.264 226.55 53.744C227.286 54.224 227.782 54.856 228.038 55.64H227.774V49.4C227.774 48.904 227.902 48.528 228.158 48.272C228.414 48.016 228.782 47.888 229.262 47.888C229.742 47.888 230.11 48.016 230.366 48.272C230.638 48.528 230.774 48.904 230.774 49.4V63.656C230.774 64.152 230.646 64.536 230.39 64.808C230.134 65.064 229.766 65.192 229.286 65.192C228.806 65.192 228.438 65.064 228.182 64.808C227.926 64.536 227.798 64.152 227.798 63.656V61.784L228.062 62.504C227.822 63.336 227.334 64 226.598 64.496C225.862 64.992 224.998 65.24 224.006 65.24ZM224.846 62.96C225.438 62.96 225.958 62.816 226.406 62.528C226.854 62.24 227.198 61.816 227.438 61.256C227.694 60.68 227.822 59.968 227.822 59.12C227.822 57.84 227.55 56.888 227.006 56.264C226.462 55.624 225.742 55.304 224.846 55.304C224.254 55.304 223.734 55.448 223.286 55.736C222.838 56.008 222.486 56.432 222.23 57.008C221.99 57.568 221.87 58.272 221.87 59.12C221.87 60.384 222.142 61.344 222.686 62C223.23 62.64 223.95 62.96 224.846 62.96Z" fill="black"/>
<path fill-rule="evenodd" clip-rule="evenodd" d="M574.498 282.321L522.495 415.233L486.046 513.196H465.262L515.366 282.321L574.498 282.321Z" fill="#1F28CF"/>
<path fill-rule="evenodd" clip-rule="evenodd" d="M587.35 282.321C587.915 327.926 587.507 389.325 588.824 392.168C589.702 394.063 617.012 415.656 670.755 456.947L660.042 474.542C596.237 434.798 562.704 412.279 559.442 406.984C554.549 399.041 529.966 325.95 517.176 282.321H587.35Z" fill="#2B44FF"/>
<path fill-rule="evenodd" clip-rule="evenodd" d="M689.602 468.788L671.508 455.486L656.909 472.292C655.786 484.961 651.443 499.17 643.88 514.918L647.195 517.604L673.612 487.194L680.993 475.448L682.65 476.791L689.602 468.788Z" fill="#191847"/>
<path fill-rule="evenodd" clip-rule="evenodd" d="M546.177 148.381C550.317 143.592 553.119 137.724 552.651 131.148C551.302 112.202 524.534 116.37 519.327 125.932C514.12 135.495 514.739 159.751 521.469 161.46C524.152 162.142 529.869 160.472 535.688 157.016L532.036 182.475H553.601L546.177 148.381Z" fill="#B28B67"/>
<path fill-rule="evenodd" clip-rule="evenodd" d="M562.053 124.842C562.749 124.161 563.129 123.191 563.458 122.269C563.799 121.311 564.131 120.344 564.358 119.347C564.81 117.356 564.815 115.066 563.373 113.52C562.217 112.28 560.482 111.724 558.881 111.603C557.814 111.522 556.718 111.67 555.695 112.001C554.681 112.329 553.806 112.984 552.823 113.391C552.785 111.245 552.412 109 551.307 107.167C550.244 105.404 548.549 104.415 546.618 104.153C544.637 103.885 542.68 104.342 540.906 105.287C540.462 105.523 540.022 105.771 539.601 106.052C539.248 106.287 538.882 106.57 538.468 106.666C538.007 106.772 537.778 106.51 537.479 106.178C537.127 105.79 536.731 105.447 536.312 105.144C534.46 103.802 532.029 103.251 529.883 104.055C528.894 104.425 527.932 105.055 527.262 105.922C526.664 106.695 526.237 107.921 525.412 108.459C525.061 108.688 524.814 108.385 524.495 108.161C524.016 107.825 523.559 107.454 523.074 107.127C522.393 106.667 521.656 106.323 520.867 106.143C519.711 105.88 518.113 105.941 517.783 107.433C517.659 107.993 517.754 108.592 517.794 109.157C517.849 109.932 517.906 110.707 517.975 111.481C518.027 112.069 518.092 112.636 518.205 113.213C518.265 113.521 518.453 114.094 518.319 114.403C518.151 114.788 517.379 114.569 517.049 114.582C516.398 114.609 515.743 114.721 515.141 114.996C514.674 115.208 514.183 115.521 513.986 116.048C513.865 116.372 513.897 116.705 513.954 117.038C514.023 117.438 513.944 117.65 513.893 118.054C513.018 117.629 509.985 116.686 509.603 118.231C509.476 118.746 509.766 119.327 509.986 119.761C510.373 120.522 510.881 121.218 511.4 121.881C512.482 123.265 513.774 124.459 515.165 125.48C513.536 126.194 513.111 128.298 514.521 129.552C515.144 130.106 515.981 130.229 516.766 130.193C517.054 130.18 517.468 130.072 517.694 130.121C517.816 130.147 517.946 130.249 518.115 130.26C519.223 130.335 520.475 130.072 521.558 129.83C523.489 129.398 525.317 128.497 526.81 127.124C527.193 126.772 527.509 126.569 528.024 126.574C528.476 126.579 528.919 126.701 529.37 126.712C530.564 126.742 531.641 126.167 532.749 125.784C532.817 127.26 533.244 128.885 533.857 130.213C534.356 131.295 535.399 131.453 536.425 131.548C539.703 131.852 542.993 131.512 546.275 131.517C543.098 132.225 539.814 132.516 536.665 133.349C535.241 133.725 536.329 134.671 536.937 135.326C537.94 136.405 538.685 137.742 539.202 139.151C540.756 137.154 543.504 135.839 545.938 136.452C548.627 137.13 550.521 140.714 548.801 143.29C547.803 144.785 546 145.363 544.499 146.005C545.67 147.204 545.953 148.975 546.657 150.467C547.005 151.202 547.492 152.034 548.269 152.29C548.557 152.385 548.894 152.393 549.121 152.624C549.402 152.91 549.469 153.23 549.827 153.475C551.259 154.456 553.495 154.381 554.764 153.101C555.912 151.943 555.613 150.112 554.655 148.938C556.18 148.312 558.96 147.506 558.353 145.164C561.659 144.948 569.685 139.666 565.248 135.806C567.683 134.45 569.92 131.136 568.356 128.215C567.152 125.966 564.351 124.961 562.053 124.842Z" fill="#191847"/>
<rect width="21.043" height="9.54095" transform="matrix(0.996329 0.0856044 -0.0881597 0.996106 514.997 142.897)" fill="#65CAFA"/>
<path d="M514.02 152.259L535.225 153.826L521.972 162.183L517.201 159.571L514.02 152.259Z" fill="#65CAFA"/>
<path d="M535.755 144.946L539.996 137.633" stroke="white"/>
<path d="M534.695 153.826L546.888 149.647" stroke="white"/>
<path fill-rule="evenodd" clip-rule="evenodd" d="M161.797 302.669C160.946 315.943 106.116 355.023 105.796 356.119C105.654 356.606 111.343 372.011 122.863 402.333L118.07 404.462C100.4 372.348 92.0192 354.581 92.9268 351.159C94.2262 346.26 108.407 330.144 135.469 302.81L161.797 302.669Z" fill="#B28B67"/>
<path fill-rule="evenodd" clip-rule="evenodd" d="M121.602 395.485L113.776 398.74C97.2757 377.466 90.8078 359.913 91.9871 350.969C92.7734 345.007 106.905 328.918 134.382 302.702L162.359 302.702C161.404 333.442 110.584 356.236 109.904 357.546C109.224 358.856 115.914 371.685 121.602 395.485Z" fill="#2B44FF"/>
<path fill-rule="evenodd" clip-rule="evenodd" d="M124.626 401.288C125.605 402.595 126.213 403.624 126.453 404.376C126.744 405.29 127.036 406.679 127.328 408.543C126.4 408.929 118.061 412.397 102.31 418.948C100.878 416.763 100.831 415.281 102.169 414.502C103.507 413.724 104.615 413.063 105.491 412.52L115.232 401.761C115.419 401.554 115.718 401.559 115.899 401.774C115.902 401.777 115.905 401.781 115.908 401.785L117.316 403.546C118.833 403.698 119.996 403.605 120.807 403.268C121.466 402.994 122.279 402.312 123.246 401.221L123.246 401.221C123.617 400.803 124.214 400.807 124.581 401.231C124.596 401.249 124.612 401.268 124.626 401.288Z" fill="#E4E4E4"/>
<path fill-rule="evenodd" clip-rule="evenodd" d="M155.493 302.669L179.918 369.674L203.925 426.32H198.261L136.294 302.669H155.493Z" fill="#997659"/>
<path fill-rule="evenodd" clip-rule="evenodd" d="M204.264 423.705C204.792 425.316 205.056 426.521 205.056 427.321C205.056 428.294 204.914 429.713 204.63 431.579C203.643 431.579 194.768 431.579 178.007 431.579C177.315 428.966 177.715 427.555 179.205 427.346C180.696 427.138 181.934 426.95 182.92 426.782L195.294 420.478C195.532 420.357 195.811 420.479 195.918 420.751C195.919 420.756 195.921 420.761 195.923 420.765L196.718 422.97C198.098 423.706 199.219 424.074 200.082 424.074C200.783 424.074 201.751 423.75 202.986 423.103L202.986 423.103C203.46 422.855 204.02 423.093 204.238 423.634C204.247 423.658 204.256 423.681 204.264 423.705Z" fill="#E4E4E4"/>
<path fill-rule="evenodd" clip-rule="evenodd" d="M201.757 414.553L189.172 417.249C179.441 400.902 138.717 333.873 134.252 302.669H162.269C177.18 325.226 192.481 397.935 201.757 414.553Z" fill="#1F28CF"/>
<path fill-rule="evenodd" clip-rule="evenodd" d="M145.691 227.96C148.203 225.054 149.904 221.493 149.619 217.503C148.801 206.007 132.558 208.536 129.399 214.338C126.239 220.141 126.615 234.859 130.698 235.896C132.326 236.31 135.795 235.297 139.326 233.2L137.11 248.648H150.196L145.691 227.96Z" fill="#B28B67"/>
<path fill-rule="evenodd" clip-rule="evenodd" d="M155.324 213.676C155.747 213.264 155.978 212.675 156.177 212.115C156.384 211.534 156.585 210.947 156.723 210.343C156.998 209.134 157 207.745 156.125 206.807C155.424 206.054 154.371 205.717 153.399 205.643C152.752 205.594 152.087 205.684 151.467 205.885C150.851 206.084 150.32 206.482 149.723 206.728C149.701 205.426 149.474 204.064 148.804 202.952C148.159 201.882 147.13 201.282 145.959 201.123C144.756 200.96 143.569 201.237 142.493 201.811C142.223 201.954 141.956 202.105 141.701 202.275C141.487 202.418 141.264 202.589 141.013 202.647C140.733 202.712 140.595 202.553 140.413 202.352C140.2 202.116 139.959 201.908 139.705 201.724C138.581 200.91 137.106 200.575 135.804 201.063C135.204 201.288 134.62 201.67 134.213 202.196C133.85 202.665 133.591 203.409 133.091 203.736C132.878 203.875 132.728 203.691 132.534 203.555C132.244 203.351 131.966 203.126 131.672 202.927C131.259 202.648 130.812 202.439 130.333 202.33C129.631 202.17 128.662 202.208 128.461 203.113C128.386 203.453 128.444 203.817 128.468 204.159C128.502 204.629 128.536 205.1 128.578 205.569C128.609 205.926 128.649 206.27 128.717 206.621C128.754 206.807 128.868 207.155 128.787 207.342C128.685 207.576 128.217 207.443 128.016 207.451C127.621 207.467 127.224 207.535 126.858 207.702C126.575 207.831 126.277 208.021 126.157 208.341C126.084 208.537 126.103 208.739 126.138 208.941C126.18 209.184 126.132 209.313 126.101 209.558C125.57 209.3 123.73 208.728 123.498 209.665C123.421 209.978 123.597 210.33 123.731 210.594C123.965 211.056 124.273 211.478 124.588 211.88C125.245 212.72 126.029 213.444 126.873 214.064C125.884 214.497 125.626 215.774 126.482 216.535C126.86 216.871 127.368 216.945 127.845 216.924C128.019 216.916 128.27 216.85 128.408 216.88C128.482 216.896 128.561 216.958 128.663 216.965C129.336 217.01 130.095 216.85 130.752 216.703C131.924 216.441 133.033 215.894 133.939 215.061C134.171 214.848 134.363 214.725 134.676 214.728C134.95 214.731 135.219 214.805 135.493 214.811C136.217 214.83 136.87 214.481 137.543 214.248C137.584 215.144 137.843 216.13 138.215 216.936C138.518 217.593 139.151 217.688 139.773 217.746C141.762 217.93 143.759 217.724 145.751 217.727C143.822 218.156 141.83 218.333 139.919 218.839C139.055 219.067 139.715 219.641 140.084 220.038C140.692 220.693 141.145 221.505 141.458 222.359C142.401 221.148 144.069 220.35 145.546 220.722C147.178 221.133 148.327 223.308 147.283 224.871C146.677 225.778 145.583 226.129 144.673 226.519C145.383 227.246 145.555 228.321 145.982 229.226C146.193 229.672 146.489 230.177 146.961 230.332C147.135 230.39 147.34 230.395 147.477 230.535C147.648 230.708 147.688 230.902 147.906 231.051C148.775 231.646 150.132 231.601 150.902 230.824C151.598 230.122 151.417 229.01 150.835 228.298C151.761 227.918 153.447 227.429 153.079 226.008C155.085 225.877 159.955 222.672 157.263 220.33C158.741 219.507 160.098 217.496 159.149 215.724C158.418 214.359 156.719 213.749 155.324 213.676Z" fill="#191847"/>
<path fill-rule="evenodd" clip-rule="evenodd" d="M111.154 293.618L98.7216 309.38C94.9757 311.495 91.9349 313.774 89.5992 316.219C89.0873 317.027 88.5637 318.552 91.1278 317.752C93.692 316.952 96.4219 316.246 96.9618 317.211C97.5017 318.176 96.1412 319.765 97.1112 321.014C97.7579 321.847 99.6392 318.999 102.755 312.47L116.006 302.29L111.154 293.618ZM175.076 276.696L164.861 277.256C174.176 306.379 179.11 321.625 179.662 322.993C180.904 326.071 178.868 330.956 178.024 333.569C181.293 335.076 180.633 328.919 184.76 330.903C188.528 332.714 191.503 336.189 195.577 332.918C196.078 332.516 196.575 331.071 195.139 330.035C191.563 327.452 186.366 322.879 185.615 321.325C184.591 319.206 181.078 304.33 175.076 276.696Z" fill="#B28B67"/>
<path fill-rule="evenodd" clip-rule="evenodd" d="M142.18 244.336L138.104 243.729C133.115 270.352 101.392 289.928 99.8978 299.862C99.35 303.505 101.661 305.216 100.573 306.372L106.051 310.602C106.876 309.344 108.886 311.467 112.763 309.715C116.64 307.964 143.799 275.48 142.18 244.336Z" fill="#1578EC"/>
<path fill-rule="evenodd" clip-rule="evenodd" d="M135.575 248.175C137.85 282.974 121.117 292.724 125.673 306.5C129.435 317.876 160.351 328.75 165.002 317.178C166.885 312.494 167.559 306.91 167.355 300.885C168.934 305.442 170.2 309.369 171.153 312.667C172.795 318.357 178.052 319.009 178.167 321.227L184.915 318.663C184.293 315.673 187.452 314.043 186.235 307.355C180.781 277.389 169.201 256.052 151.496 243.345L151.168 240.409C151.033 239.209 150.094 238.347 149.07 238.483L136.557 240.145C135.533 240.281 134.812 241.365 134.947 242.565L135.575 248.175Z" fill="#1578EC"/>
<path fill-rule="evenodd" clip-rule="evenodd" d="M490.426 263.641L469.996 289.814C463.69 293.478 458.603 297.354 454.735 301.443C453.903 302.776 453.092 305.258 457.446 303.788C461.799 302.318 466.443 300.987 467.424 302.493C468.406 304 466.163 306.647 467.898 308.578C469.056 309.866 472.121 305.163 477.093 294.47L499.246 277.182L490.426 263.641ZM599.132 231.832L581.638 233.479C599.287 279.471 608.624 303.543 609.649 305.695C611.957 310.537 608.742 318.517 607.444 322.767C613.138 324.941 611.654 315.123 618.849 318C625.417 320.626 630.72 325.977 637.524 320.435C638.36 319.754 639.13 317.403 636.608 315.847C630.324 311.97 621.144 305.021 619.767 302.585C617.889 299.264 611.01 275.68 599.132 231.832Z" fill="#B28B67"/>
<path fill-rule="evenodd" clip-rule="evenodd" d="M540.84 182.38L533.811 181.707C526.775 224.741 473.465 258.442 471.47 274.473C470.739 280.351 474.802 282.924 473.002 284.857L482.642 291.234C483.986 289.158 487.557 292.413 494.108 289.321C500.66 286.23 545.399 232.176 540.84 182.38Z" fill="#1578EC"/>
<path fill-rule="evenodd" clip-rule="evenodd" d="M529.727 189.018C535.62 244.623 507.469 261.477 516.073 283.222C523.179 301.178 576.846 316.338 584.164 297.451C587.126 289.806 587.964 280.806 587.27 271.166C590.24 278.353 592.636 284.554 594.459 289.77C597.603 298.768 606.66 299.429 606.984 302.975L618.415 298.37C617.177 293.624 622.504 290.78 620.033 280.15C608.96 232.524 587.872 199.177 556.768 180.109L556.035 175.428C555.736 173.515 554.076 172.201 552.327 172.494L530.952 176.076C529.203 176.37 528.028 178.159 528.327 180.072L529.727 189.018Z" fill="#1578EC"/>
<rect width="12.7688" height="5.78942" transform="matrix(0.996329 0.0856044 -0.0881597 0.996106 126.772 224.633)" fill="#65CAFA"/>
<path d="M126.178 230.313L139.046 231.264L131.004 236.335L128.109 234.75L126.178 230.313Z" fill="#65CAFA"/>
<path d="M139.368 225.876L141.941 221.438" stroke="white"/>
<path d="M138.724 231.264L146.123 228.728" stroke="white"/>
<rect x="-7" y="388" width="85" height="22" fill="#D9D9D9"/>
<rect x="78" y="410" width="85" height="22" fill="#D9D9D9"/>
<rect x="163" y="432" width="84" height="22" fill="#D9D9D9"/>
</g>
<defs>
<clipPath id="clip0_3_155">
<rect width="1012" height="506" rx="40" fill="white"/>
</clipPath>
</defs>
</svg>
